<svg width="1366" height="60" viewBox="0 0 1366 60" fill="none" xmlns="http://www.w3.org/2000/svg">
<rect width="2335" height="60" transform="translate(-484)" fill="#F54932"/>
<path d="M-455.944 36.68C-455.944 36.8707 -456.025 37.8093 -456.186 39.496C-456.347 41.1827 -456.435 42.048 -456.45 42.092H-457.858C-457.887 41.5493 -457.953 40.7573 -458.056 39.716C-458.144 38.6747 -458.21 38.1027 -458.254 38H-468.308C-468.367 38.0587 -468.513 38.616 -468.748 39.672C-468.968 40.728 -469.137 41.542 -469.254 42.114H-470.684C-470.669 41.5273 -470.64 40.6473 -470.596 39.474C-470.537 38.3153 -470.486 37.384 -470.442 36.68H-468.836C-468.484 36.24 -468.103 35.5213 -467.692 34.524C-467.267 33.512 -466.885 32.148 -466.548 30.432C-466.211 28.7013 -466.042 26.6773 -466.042 24.36V23.018L-468.308 22.754V21.654H-455.856V22.754L-457.924 23.018V36.68H-455.944ZM-464.678 24.492C-464.663 26.5747 -464.788 28.4667 -465.052 30.168C-465.316 31.8547 -465.631 33.248 -465.998 34.348C-466.35 35.448 -466.673 36.2253 -466.966 36.68H-460.256L-460.234 22.93H-464.678V24.492ZM-452.086 23.018L-453.89 22.754V21.654H-442.692L-442.384 25.064H-443.638L-444.276 22.93L-449.732 22.798V29.002L-446.058 28.936L-445.75 27.11H-444.54V32.17H-445.75L-446.058 30.278L-449.732 30.212V36.768L-443.528 36.548L-442.362 33.776L-441.064 34.172L-441.702 38H-453.912V36.922L-452.086 36.702V23.018ZM-434.082 24.998C-434.082 27.638 -434.236 29.97 -434.544 31.994C-434.837 34.0033 -435.284 35.5287 -435.886 36.57C-436.194 37.098 -436.546 37.4867 -436.942 37.736C-437.338 37.9853 -437.807 38.11 -438.35 38.11C-439.054 38.11 -439.574 38.0733 -439.912 38L-440.066 36.218C-439.728 36.262 -439.178 36.284 -438.416 36.284C-438.137 36.284 -437.895 36.2253 -437.69 36.108C-437.484 35.976 -437.294 35.756 -437.118 35.448C-436.003 33.7173 -435.446 30.1533 -435.446 24.756V23.018L-437.976 22.754V21.654H-425.26V22.754L-427.306 23.018V36.702L-425.128 36.922V38H-431.904V36.922L-429.638 36.68L-429.616 23.018H-434.082V24.998ZM-416.717 38.242C-418.213 38.242 -419.481 37.8973 -420.523 37.208C-421.549 36.5187 -422.327 35.5507 -422.855 34.304C-423.383 33.0427 -423.647 31.5833 -423.647 29.926C-423.647 28.2393 -423.331 26.758 -422.701 25.482C-422.055 24.206 -421.175 23.2233 -420.061 22.534C-418.946 21.83 -417.692 21.478 -416.299 21.478C-414.011 21.478 -412.265 22.204 -411.063 23.656C-409.845 25.0933 -409.237 27.088 -409.237 29.64C-409.237 31.356 -409.567 32.8667 -410.227 34.172C-410.872 35.4627 -411.767 36.4673 -412.911 37.186C-414.04 37.89 -415.309 38.242 -416.717 38.242ZM-416.431 22.622C-417.853 22.622 -418.975 23.2453 -419.797 24.492C-420.618 25.724 -421.029 27.5353 -421.029 29.926C-421.029 32.126 -420.633 33.8713 -419.841 35.162C-419.034 36.438 -417.912 37.076 -416.475 37.076C-415.067 37.076 -413.952 36.438 -413.131 35.162C-412.295 33.886 -411.877 32.0527 -411.877 29.662C-411.877 27.4473 -412.273 25.724 -413.065 24.492C-413.857 23.2453 -414.979 22.622 -416.431 22.622ZM-386.819 21.654V22.754L-388.689 23.04V36.68L-386.643 36.922V38H-392.847V36.922L-391.021 36.68V22.952H-398.061V36.702L-396.015 36.922V38H-402.175V36.922L-400.393 36.702V23.018L-402.263 22.754V21.654H-386.819ZM-378.109 38.242C-379.605 38.242 -380.874 37.8973 -381.915 37.208C-382.942 36.5187 -383.719 35.5507 -384.247 34.304C-384.775 33.0427 -385.039 31.5833 -385.039 29.926C-385.039 28.2393 -384.724 26.758 -384.093 25.482C-383.448 24.206 -382.568 23.2233 -381.453 22.534C-380.338 21.83 -379.084 21.478 -377.691 21.478C-375.403 21.478 -373.658 22.204 -372.455 23.656C-371.238 25.0933 -370.629 27.088 -370.629 29.64C-370.629 31.356 -370.959 32.8667 -371.619 34.172C-372.264 35.4627 -373.159 36.4673 -374.303 37.186C-375.432 37.89 -376.701 38.242 -378.109 38.242ZM-377.823 22.622C-379.246 22.622 -380.368 23.2453 -381.189 24.492C-382.01 25.724 -382.421 27.5353 -382.421 29.926C-382.421 32.126 -382.025 33.8713 -381.233 35.162C-380.426 36.438 -379.304 37.076 -377.867 37.076C-376.459 37.076 -375.344 36.438 -374.523 35.162C-373.687 33.886 -373.269 32.0527 -373.269 29.662C-373.269 27.4473 -373.665 25.724 -374.457 24.492C-375.249 23.2453 -376.371 22.622 -377.823 22.622ZM-366.302 23.018L-368.7 22.754V21.654H-362.87L-359.768 31.554L-359.042 34.348L-358.382 31.554L-355.302 21.654H-349.516V22.754L-351.936 23.018L-350.176 36.68L-348.262 36.922V38H-354.598V36.922L-352.596 36.702L-353.586 26.824L-354.048 22.578L-354.972 25.746L-358.646 37.252H-360.076L-363.64 26.714L-364.938 22.556L-365.334 26.824L-366.214 36.702L-364.036 36.922V38H-369.778V36.922L-367.908 36.702L-366.302 23.018ZM-340.447 38.242C-341.943 38.242 -343.212 37.8973 -344.253 37.208C-345.28 36.5187 -346.057 35.5507 -346.585 34.304C-347.113 33.0427 -347.377 31.5833 -347.377 29.926C-347.377 28.2393 -347.062 26.758 -346.431 25.482C-345.786 24.206 -344.906 23.2233 -343.791 22.534C-342.676 21.83 -341.422 21.478 -340.029 21.478C-337.741 21.478 -335.996 22.204 -334.793 23.656C-333.576 25.0933 -332.967 27.088 -332.967 29.64C-332.967 31.356 -333.297 32.8667 -333.957 34.172C-334.602 35.4627 -335.497 36.4673 -336.641 37.186C-337.77 37.89 -339.039 38.242 -340.447 38.242ZM-340.161 22.622C-341.584 22.622 -342.706 23.2453 -343.527 24.492C-344.348 25.724 -344.759 27.5353 -344.759 29.926C-344.759 32.126 -344.363 33.8713 -343.571 35.162C-342.764 36.438 -341.642 37.076 -340.205 37.076C-338.797 37.076 -337.682 36.438 -336.861 35.162C-336.025 33.886 -335.607 32.0527 -335.607 29.662C-335.607 27.4473 -336.003 25.724 -336.795 24.492C-337.587 23.2453 -338.709 22.622 -340.161 22.622ZM-308.334 36.68C-308.525 38.8067 -308.723 40.6107 -308.928 42.092H-310.336C-310.365 41.5493 -310.417 40.7573 -310.49 39.716C-310.563 38.6893 -310.622 38.1173 -310.666 38H-331.412V36.922L-329.344 36.702V23.018L-331.17 22.754V21.654H-325.076V22.754L-327.034 23.018V36.702H-321.248V23.018L-322.942 22.754V21.654H-317.266V22.754L-318.982 23.018V36.702H-313.306V23.018L-314.956 22.754V21.654H-309.17V22.754L-310.974 23.018V36.68H-308.334ZM-300.407 21.654V22.754L-302.563 23.018V34.062L-300.759 31.356L-294.423 23.612V23.018L-296.381 22.754V21.654H-290.331V22.754L-292.091 23.018V36.702L-290.221 36.922V38H-296.359V36.922L-294.423 36.702V25.504L-296.051 28.056L-302.563 35.91V36.702L-300.495 36.922V38H-306.699V36.922L-304.873 36.702V23.018L-306.633 22.754V21.654H-300.407ZM-275.568 34.612C-275.627 34.7293 -275.803 35.1473 -276.096 35.866C-276.389 36.57 -276.807 37.142 -277.35 37.582C-277.893 38.022 -278.523 38.242 -279.242 38.242C-279.623 38.242 -280.005 38.2053 -280.386 38.132C-280.753 38.0733 -281.053 37.9927 -281.288 37.89V36.328L-279.726 36.35C-279.051 36.35 -278.553 36.218 -278.23 35.954C-277.907 35.6753 -277.629 35.184 -277.394 34.48L-282.938 23.018L-284.126 22.754V21.654H-278.186V22.754L-280.342 23.018L-276.8 30.674L-276.14 32.676L-275.414 30.652L-272.62 23.018L-274.49 22.754V21.654H-269.782V22.754L-270.926 23.018L-275.568 34.612ZM-263.757 22.82L-267.541 22.952L-268.311 27.55H-269.763L-269.389 21.654H-255.683L-255.419 27.55H-256.805L-257.531 22.952L-261.337 22.82V36.702L-258.213 36.922V38H-266.617V36.922L-263.757 36.702V22.82ZM-247.226 38.242C-248.722 38.242 -249.991 37.8973 -251.032 37.208C-252.059 36.5187 -252.836 35.5507 -253.364 34.304C-253.892 33.0427 -254.156 31.5833 -254.156 29.926C-254.156 28.2393 -253.841 26.758 -253.21 25.482C-252.565 24.206 -251.685 23.2233 -250.57 22.534C-249.456 21.83 -248.202 21.478 -246.808 21.478C-244.52 21.478 -242.775 22.204 -241.572 23.656C-240.355 25.0933 -239.746 27.088 -239.746 29.64C-239.746 31.356 -240.076 32.8667 -240.736 34.172C-241.382 35.4627 -242.276 36.4673 -243.42 37.186C-244.55 37.89 -245.818 38.242 -247.226 38.242ZM-246.94 22.622C-248.363 22.622 -249.485 23.2453 -250.306 24.492C-251.128 25.724 -251.538 27.5353 -251.538 29.926C-251.538 32.126 -251.142 33.8713 -250.35 35.162C-249.544 36.438 -248.422 37.076 -246.984 37.076C-245.576 37.076 -244.462 36.438 -243.64 35.162C-242.804 33.886 -242.386 32.0527 -242.386 29.662C-242.386 27.4473 -242.782 25.724 -243.574 24.492C-244.366 23.2453 -245.488 22.622 -246.94 22.622ZM-222.549 21.654V22.754L-224.419 23.04V36.68L-222.373 36.922V38H-228.577V36.922L-226.751 36.68V22.952H-233.791V36.702L-231.745 36.922V38H-237.905V36.922L-236.123 36.702V23.018L-237.993 22.754V21.654H-222.549ZM-215.138 21.522H-212.718L-207.372 36.702L-206.008 36.922V38H-211.816V36.922L-209.99 36.702L-211.024 33.446H-217.448L-218.482 36.702L-216.59 36.922V38H-221.804V36.922L-220.44 36.702L-215.138 21.522ZM-213.752 25.042L-214.302 23.106L-214.83 25.086L-217.052 32.148H-211.442L-213.752 25.042ZM-197.485 28.936C-197.338 27.396 -196.92 26.0613 -196.231 24.932C-195.542 23.8027 -194.676 22.9447 -193.635 22.358C-192.579 21.7567 -191.442 21.4633 -190.225 21.478C-188.788 21.478 -187.563 21.8153 -186.551 22.49C-185.524 23.15 -184.747 24.0813 -184.219 25.284C-183.691 26.472 -183.427 27.858 -183.427 29.442C-183.427 31.2167 -183.742 32.7713 -184.373 34.106C-184.989 35.426 -185.84 36.438 -186.925 37.142C-187.996 37.846 -189.198 38.198 -190.533 38.198C-192.014 38.198 -193.276 37.8753 -194.317 37.23C-195.358 36.57 -196.15 35.646 -196.693 34.458C-197.236 33.2553 -197.514 31.8547 -197.529 30.256H-201.049V36.68L-199.157 36.922V38H-205.207V36.922L-203.403 36.68V23.018L-205.163 22.754V21.654H-199.245V22.754L-201.071 23.018V28.936H-197.485ZM-190.379 22.666C-191.772 22.666 -192.887 23.2747 -193.723 24.492C-194.559 25.7093 -194.977 27.5353 -194.977 29.97C-194.977 32.0967 -194.581 33.798 -193.789 35.074C-192.982 36.35 -191.853 36.988 -190.401 36.988C-189.008 36.988 -187.93 36.372 -187.167 35.14C-186.39 33.8933 -186.001 32.06 -186.001 29.64C-186.001 27.5133 -186.382 25.8193 -187.145 24.558C-187.908 23.2967 -188.986 22.666 -190.379 22.666ZM-158.717 36.68C-158.908 38.8067 -159.106 40.6107 -159.311 42.092H-160.719C-160.748 41.5493 -160.8 40.7573 -160.873 39.716C-160.946 38.6893 -161.005 38.1173 -161.049 38H-181.795V36.922L-179.727 36.702V23.018L-181.553 22.754V21.654H-175.459V22.754L-177.417 23.018V36.702H-171.631V23.018L-173.325 22.754V21.654H-167.649V22.754L-169.365 23.018V36.702H-163.689V23.018L-165.339 22.754V21.654H-159.553V22.754L-161.357 23.018V36.68H-158.717ZM-150.79 21.654V22.754L-152.946 23.018V34.062L-151.142 31.356L-144.806 23.612V23.018L-146.764 22.754V21.654H-140.714V22.754L-142.474 23.018V36.702L-140.604 36.922V38H-146.742V36.922L-144.806 36.702V25.504L-146.434 28.056L-152.946 35.91V36.702L-150.878 36.922V38H-157.082V36.922L-155.256 36.702V23.018L-157.016 22.754V21.654H-150.79ZM-135.99 23.018L-138.388 22.754V21.654H-132.558L-129.456 31.554L-128.73 34.348L-128.07 31.554L-124.99 21.654H-119.204V22.754L-121.624 23.018L-119.864 36.68L-117.95 36.922V38H-124.286V36.922L-122.284 36.702L-123.274 26.824L-123.736 22.578L-124.66 25.746L-128.334 37.252H-129.764L-133.328 26.714L-134.626 22.556L-135.022 26.824L-135.902 36.702L-133.724 36.922V38H-139.466V36.922L-137.596 36.702L-135.99 23.018ZM-88.9858 31.774H-110.128V30.146H-88.9858V31.774ZM-66.1745 36.68C-66.1745 36.8707 -66.2552 37.8093 -66.4165 39.496C-66.5779 41.1827 -66.6659 42.048 -66.6805 42.092H-68.0885C-68.1179 41.5493 -68.1839 40.7573 -68.2865 39.716C-68.3745 38.6747 -68.4405 38.1027 -68.4845 38H-78.5385C-78.5972 38.0587 -78.7439 38.616 -78.9785 39.672C-79.1985 40.728 -79.3672 41.542 -79.4845 42.114H-80.9145C-80.8999 41.5273 -80.8705 40.6473 -80.8265 39.474C-80.7679 38.3153 -80.7165 37.384 -80.6725 36.68H-79.0665C-78.7145 36.24 -78.3332 35.5213 -77.9225 34.524C-77.4972 33.512 -77.1159 32.148 -76.7785 30.432C-76.4412 28.7013 -76.2725 26.6773 -76.2725 24.36V23.018L-78.5385 22.754V21.654H-66.0865V22.754L-68.1545 23.018V36.68H-66.1745ZM-74.9085 24.492C-74.8939 26.5747 -75.0185 28.4667 -75.2825 30.168C-75.5465 31.8547 -75.8619 33.248 -76.2285 34.348C-76.5805 35.448 -76.9032 36.2253 -77.1965 36.68H-70.4865L-70.4645 22.93H-74.9085V24.492ZM-62.3163 23.018L-64.1203 22.754V21.654H-52.9223L-52.6143 25.064H-53.8683L-54.5063 22.93L-59.9623 22.798V29.002L-56.2883 28.936L-55.9803 27.11H-54.7703V32.17H-55.9803L-56.2883 30.278L-59.9623 30.212V36.768L-53.7583 36.548L-52.5923 33.776L-51.2943 34.172L-51.9323 38H-64.1423V36.922L-62.3163 36.702V23.018ZM-44.3122 24.998C-44.3122 27.638 -44.4662 29.97 -44.7742 31.994C-45.0676 34.0033 -45.5149 35.5287 -46.1162 36.57C-46.4242 37.098 -46.7762 37.4867 -47.1722 37.736C-47.5682 37.9853 -48.0376 38.11 -48.5802 38.11C-49.2842 38.11 -49.8049 38.0733 -50.1422 38L-50.2962 36.218C-49.9589 36.262 -49.4089 36.284 -48.6462 36.284C-48.3676 36.284 -48.1256 36.2253 -47.9202 36.108C-47.7149 35.976 -47.5242 35.756 -47.3482 35.448C-46.2336 33.7173 -45.6762 30.1533 -45.6762 24.756V23.018L-48.2062 22.754V21.654H-35.4902V22.754L-37.5362 23.018V36.702L-35.3582 36.922V38H-42.1342V36.922L-39.8682 36.68L-39.8462 23.018H-44.3122V24.998ZM-26.947 38.242C-28.443 38.242 -29.7117 37.8973 -30.753 37.208C-31.7797 36.5187 -32.557 35.5507 -33.085 34.304C-33.613 33.0427 -33.877 31.5833 -33.877 29.926C-33.877 28.2393 -33.5617 26.758 -32.931 25.482C-32.2857 24.206 -31.4057 23.2233 -30.291 22.534C-29.1763 21.83 -27.9223 21.478 -26.529 21.478C-24.241 21.478 -22.4957 22.204 -21.293 23.656C-20.0757 25.0933 -19.467 27.088 -19.467 29.64C-19.467 31.356 -19.797 32.8667 -20.457 34.172C-21.1023 35.4627 -21.997 36.4673 -23.141 37.186C-24.2703 37.89 -25.539 38.242 -26.947 38.242ZM-26.661 22.622C-28.0837 22.622 -29.2057 23.2453 -30.027 24.492C-30.8483 25.724 -31.259 27.5353 -31.259 29.926C-31.259 32.126 -30.863 33.8713 -30.071 35.162C-29.2643 36.438 -28.1423 37.076 -26.705 37.076C-25.297 37.076 -24.1823 36.438 -23.361 35.162C-22.525 33.886 -22.107 32.0527 -22.107 29.662C-22.107 27.4473 -22.503 25.724 -23.295 24.492C-24.087 23.2453 -25.209 22.622 -26.661 22.622ZM-10.6453 23.018L-12.3613 22.754V21.654H-9.43534C-8.90734 21.654 -8.38668 21.632 -7.87334 21.588C-7.08134 21.5293 -6.33334 21.5 -5.62934 21.5C-3.50268 21.5147 -1.99934 21.9107 -1.11934 22.688C-0.239343 23.4653 0.200657 24.6387 0.200657 26.208C0.200657 27.3813 -0.0706768 28.4007 -0.613343 29.266C-1.15601 30.1313 -1.91134 30.7913 -2.87934 31.246C-3.83268 31.7007 -4.93268 31.928 -6.17934 31.928C-6.60468 31.928 -7.03734 31.9207 -7.47734 31.906C-7.91734 31.8767 -8.18868 31.8547 -8.29134 31.84V36.68L-5.27734 36.922V38H-12.4713V36.922L-10.6453 36.702V23.018ZM-8.29134 30.63C-7.88068 30.7033 -7.17668 30.74 -6.17934 30.74C-5.02068 30.74 -4.08201 30.388 -3.36334 29.684C-2.63001 28.98 -2.26334 27.8287 -2.26334 26.23C-2.26334 24.9687 -2.57868 24.0667 -3.20934 23.524C-3.84001 22.9667 -4.82268 22.688 -6.15734 22.688C-6.62668 22.688 -7.12534 22.7173 -7.65334 22.776C-7.97601 22.8053 -8.18868 22.82 -8.29134 22.82V30.63ZM9.18577 34.612C9.1271 34.7293 8.9511 35.1473 8.65777 35.866C8.36443 36.57 7.94643 37.142 7.40377 37.582C6.8611 38.022 6.23043 38.242 5.51177 38.242C5.13043 38.242 4.7491 38.2053 4.36777 38.132C4.0011 38.0733 3.70043 37.9927 3.46577 37.89V36.328L5.02777 36.35C5.70243 36.35 6.2011 36.218 6.52377 35.954C6.84643 35.6753 7.1251 35.184 7.35977 34.48L1.81577 23.018L0.627766 22.754V21.654H6.56777V22.754L4.41177 23.018L7.95377 30.674L8.61377 32.676L9.33977 30.652L12.1338 23.018L10.2638 22.754V21.654H14.9718V22.754L13.8278 23.018L9.18577 34.612ZM23.1752 29.442C23.7619 29.662 24.3485 30.1533 24.9352 30.916C25.5219 31.664 26.2259 32.6833 27.0472 33.974C27.6045 34.8833 28.0372 35.5507 28.3452 35.976C28.6532 36.3867 28.9172 36.6213 29.1372 36.68L29.9732 36.922V38H27.2452C26.9079 38 26.5265 37.714 26.1012 37.142C25.6905 36.5553 25.1552 35.668 24.4952 34.48C23.7472 33.1453 23.1239 32.1333 22.6252 31.444C22.1265 30.7547 21.6499 30.41 21.1952 30.41H19.7872V36.68L21.7452 36.944V38H15.7172V36.9L17.4992 36.68V23.018L15.7172 22.754V21.654H21.6132V22.754L19.7872 23.018V29.354H21.6792L26.1232 23.018L24.2752 22.754V21.654H29.6872V22.754L27.9492 23.018L23.1752 29.442ZM43.6441 38.242C42.0308 38.242 40.6521 37.8973 39.5081 37.208C38.3788 36.504 37.5208 35.5213 36.9341 34.26C36.3475 32.9987 36.0541 31.5173 36.0541 29.816C36.0541 28.1733 36.3988 26.7213 37.0881 25.46C37.7775 24.1987 38.7235 23.2233 39.9261 22.534C41.1288 21.83 42.4781 21.478 43.9741 21.478C45.1035 21.478 46.4601 21.654 48.0441 22.006L48.7701 22.138L48.5501 26.098H47.0761L46.5261 23.304C46.3208 23.128 45.9615 22.9813 45.4481 22.864C44.9495 22.732 44.3335 22.666 43.6001 22.666C42.6615 22.666 41.8255 22.9373 41.0921 23.48C40.3588 24.008 39.7795 24.7927 39.3541 25.834C38.9435 26.8753 38.7381 28.122 38.7381 29.574C38.7381 30.9527 38.9215 32.2067 39.2881 33.336C39.6548 34.4653 40.2121 35.3673 40.9601 36.042C41.7081 36.702 42.6321 37.032 43.7321 37.032C44.5095 37.032 45.1035 36.966 45.5141 36.834C45.9395 36.702 46.2988 36.5113 46.5921 36.262L47.5161 34.106L48.9021 34.282L48.3741 37.406C48.0661 37.4207 47.6115 37.5233 47.0101 37.714C46.4821 37.8753 45.9688 38 45.4701 38.088C44.9861 38.1907 44.3775 38.242 43.6441 38.242ZM56.0812 21.522H58.5012L63.8472 36.702L65.2112 36.922V38H59.4032V36.922L61.2292 36.702L60.1952 33.446H53.7712L52.7372 36.702L54.6292 36.922V38H49.4152V36.922L50.7792 36.702L56.0812 21.522ZM57.4672 25.042L56.9172 23.106L56.3892 25.086L54.1672 32.148H59.7772L57.4672 25.042ZM68.5416 23.018L66.1436 22.754V21.654H71.9736L75.0756 31.554L75.8016 34.348L76.4616 31.554L79.5416 21.654H85.3276V22.754L82.9076 23.018L84.6676 36.68L86.5816 36.922V38H80.2456V36.922L82.2476 36.702L81.2576 26.824L80.7956 22.578L79.8716 25.746L76.1976 37.252H74.7676L71.2036 26.714L69.9056 22.556L69.5096 26.824L68.6296 36.702L70.8076 36.922V38H65.0656V36.922L66.9356 36.702L68.5416 23.018ZM94.0888 21.654V22.754L91.9328 23.018V34.062L93.7368 31.356L100.073 23.612V23.018L98.1148 22.754V21.654H104.165V22.754L102.405 23.018V36.702L104.275 36.922V38H98.1368V36.922L100.073 36.702V25.504L98.4448 28.056L91.9328 35.91V36.702L94.0008 36.922V38H87.7968V36.922L89.6227 36.702V23.018L87.8628 22.754V21.654H94.0888ZM111.947 29.838L107.371 23.04L105.743 22.754V21.654H112.299V22.754L110.209 23.04L113.641 28.606L117.073 23.018L115.137 22.754V21.654H120.549V22.754L118.789 23.04L114.323 29.42L119.229 36.702L120.901 36.922V38H114.367V36.922L116.413 36.702L112.673 30.696L109.087 36.702L111.287 36.922V38H105.435V36.922L107.305 36.702L111.947 29.838ZM134.59 34.612C134.531 34.7293 134.355 35.1473 134.062 35.866C133.769 36.57 133.351 37.142 132.808 37.582C132.265 38.022 131.635 38.242 130.916 38.242C130.535 38.242 130.153 38.2053 129.772 38.132C129.405 38.0733 129.105 37.9927 128.87 37.89V36.328L130.432 36.35C131.107 36.35 131.605 36.218 131.928 35.954C132.251 35.6753 132.529 35.184 132.764 34.48L127.22 23.018L126.032 22.754V21.654H131.972V22.754L129.816 23.018L133.358 30.674L134.018 32.676L134.744 30.652L137.538 23.018L135.668 22.754V21.654H140.376V22.754L139.232 23.018L134.59 34.612ZM146.401 22.82L142.617 22.952L141.847 27.55H140.395L140.769 21.654H154.475L154.739 27.55H153.353L152.627 22.952L148.821 22.82V36.702L151.945 36.922V38H143.541V36.922L146.401 36.702V22.82ZM162.932 38.242C161.436 38.242 160.167 37.8973 159.126 37.208C158.099 36.5187 157.322 35.5507 156.794 34.304C156.266 33.0427 156.002 31.5833 156.002 29.926C156.002 28.2393 156.317 26.758 156.948 25.482C157.593 24.206 158.473 23.2233 159.588 22.534C160.703 21.83 161.957 21.478 163.35 21.478C165.638 21.478 167.383 22.204 168.586 23.656C169.803 25.0933 170.412 27.088 170.412 29.64C170.412 31.356 170.082 32.8667 169.422 34.172C168.777 35.4627 167.882 36.4673 166.738 37.186C165.609 37.89 164.34 38.242 162.932 38.242ZM163.218 22.622C161.795 22.622 160.673 23.2453 159.852 24.492C159.031 25.724 158.62 27.5353 158.62 29.926C158.62 32.126 159.016 33.8713 159.808 35.162C160.615 36.438 161.737 37.076 163.174 37.076C164.582 37.076 165.697 36.438 166.518 35.162C167.354 33.886 167.772 32.0527 167.772 29.662C167.772 27.4473 167.376 25.724 166.584 24.492C165.792 23.2453 164.67 22.622 163.218 22.622ZM187.609 21.654V22.754L185.739 23.04V36.68L187.785 36.922V38H181.581V36.922L183.407 36.68V22.952H176.367V36.702L178.413 36.922V38H172.253V36.922L174.035 36.702V23.018L172.165 22.754V21.654H187.609ZM195.021 21.522H197.441L202.787 36.702L204.151 36.922V38H198.343V36.922L200.169 36.702L199.135 33.446H192.711L191.677 36.702L193.569 36.922V38H188.355V36.922L189.719 36.702L195.021 21.522ZM196.407 25.042L195.857 23.106L195.329 25.086L193.107 32.148H198.717L196.407 25.042ZM212.673 28.936C212.82 27.396 213.238 26.0613 213.927 24.932C214.616 23.8027 215.482 22.9447 216.523 22.358C217.579 21.7567 218.716 21.4633 219.933 21.478C221.37 21.478 222.595 21.8153 223.607 22.49C224.634 23.15 225.411 24.0813 225.939 25.284C226.467 26.472 226.731 27.858 226.731 29.442C226.731 31.2167 226.416 32.7713 225.785 34.106C225.169 35.426 224.318 36.438 223.233 37.142C222.162 37.846 220.96 38.198 219.625 38.198C218.144 38.198 216.882 37.8753 215.841 37.23C214.8 36.57 214.008 35.646 213.465 34.458C212.922 33.2553 212.644 31.8547 212.629 30.256H209.109V36.68L211.001 36.922V38H204.951V36.922L206.755 36.68V23.018L204.995 22.754V21.654H210.913V22.754L209.087 23.018V28.936H212.673ZM219.779 22.666C218.386 22.666 217.271 23.2747 216.435 24.492C215.599 25.7093 215.181 27.5353 215.181 29.97C215.181 32.0967 215.577 33.798 216.369 35.074C217.176 36.35 218.305 36.988 219.757 36.988C221.15 36.988 222.228 36.372 222.991 35.14C223.768 33.8933 224.157 32.06 224.157 29.64C224.157 27.5133 223.776 25.8193 223.013 24.558C222.25 23.2967 221.172 22.666 219.779 22.666ZM251.441 36.68C251.251 38.8067 251.053 40.6107 250.847 42.092H249.439C249.41 41.5493 249.359 40.7573 249.285 39.716C249.212 38.6893 249.153 38.1173 249.109 38H228.363V36.922L230.431 36.702V23.018L228.605 22.754V21.654H234.699V22.754L232.741 23.018V36.702H238.527V23.018L236.833 22.754V21.654H242.509V22.754L240.793 23.018V36.702H246.469V23.018L244.819 22.754V21.654H250.605V22.754L248.801 23.018V36.68H251.441ZM259.368 21.654V22.754L257.212 23.018V34.062L259.016 31.356L265.352 23.612V23.018L263.394 22.754V21.654H269.444V22.754L267.684 23.018V36.702L269.554 36.922V38H263.416V36.922L265.352 36.702V25.504L263.724 28.056L257.212 35.91V36.702L259.28 36.922V38H253.076V36.922L254.902 36.702V23.018L253.142 22.754V21.654H259.368ZM277.227 29.838L272.651 23.04L271.023 22.754V21.654H277.579V22.754L275.489 23.04L278.921 28.606L282.353 23.018L280.417 22.754V21.654H285.829V22.754L284.069 23.04L279.603 29.42L284.509 36.702L286.181 36.922V38H279.647V36.922L281.693 36.702L277.953 30.696L274.367 36.702L276.567 36.922V38H270.715V36.922L272.585 36.702L277.227 29.838ZM290.733 32.764H289.325L288.665 18.574H291.349L290.733 32.764ZM288.577 36.834C288.577 36.394 288.745 36.02 289.083 35.712C289.42 35.404 289.801 35.25 290.227 35.25C290.696 35.25 291.055 35.382 291.305 35.646C291.554 35.91 291.679 36.24 291.679 36.636C291.679 37.1053 291.51 37.4867 291.173 37.78C290.85 38.0733 290.454 38.22 289.985 38.22C289.603 38.22 289.273 38.0953 288.995 37.846C288.716 37.582 288.577 37.2447 288.577 36.834Z" fill="white"/>
<circle cx="309" cy="30" r="3" fill="white"/>
<path d="M331.682 21.654V22.754L329.724 23.04V36.702H335.51V23.018L333.816 22.754V21.654H339.492V22.754L337.776 23.018V36.702H343.452V23.018L341.802 22.754V21.654H347.588V22.754L345.784 23.018V36.68L347.83 36.922V38H325.346V36.922L327.414 36.702V23.018L325.588 22.754V21.654H331.682ZM355.038 21.522H357.458L362.804 36.702L364.168 36.922V38H358.36V36.922L360.186 36.702L359.152 33.446H352.728L351.694 36.702L353.586 36.922V38H348.372V36.922L349.736 36.702L355.038 21.522ZM356.424 25.042L355.874 23.106L355.346 25.086L353.124 32.148H358.734L356.424 25.042ZM370.557 29.838L365.981 23.04L364.353 22.754V21.654H370.909V22.754L368.819 23.04L372.251 28.606L375.683 23.018L373.747 22.754V21.654H379.159V22.754L377.399 23.04L372.933 29.42L377.839 36.702L379.511 36.922V38H372.977V36.922L375.023 36.702L371.283 30.696L367.697 36.702L369.897 36.922V38H364.045V36.922L365.915 36.702L370.557 29.838ZM383.161 23.018L380.763 22.754V21.654H386.593L389.695 31.554L390.421 34.348L391.081 31.554L394.161 21.654H399.947V22.754L397.527 23.018L399.287 36.68L401.201 36.922V38H394.865V36.922L396.867 36.702L395.877 26.824L395.415 22.578L394.491 25.746L390.817 37.252H389.387L385.823 26.714L384.525 22.556L384.129 26.824L383.249 36.702L385.427 36.922V38H379.685V36.922L381.555 36.702L383.161 23.018ZM407.718 21.522H410.138L415.484 36.702L416.848 36.922V38H411.04V36.922L412.866 36.702L411.832 33.446H405.408L404.374 36.702L406.266 36.922V38H401.052V36.922L402.416 36.702L407.718 21.522ZM409.104 25.042L408.554 23.106L408.026 25.086L405.804 32.148H411.414L409.104 25.042ZM422.95 22.82L419.166 22.952L418.396 27.55H416.944L417.318 21.654H431.024L431.288 27.55H429.902L429.176 22.952L425.37 22.82V36.702L428.494 36.922V38H420.09V36.922L422.95 36.702V22.82ZM439.921 28.078C441.71 28.078 443.081 28.5033 444.035 29.354C444.988 30.19 445.465 31.3633 445.465 32.874C445.465 34.5607 444.929 35.866 443.859 36.79C442.788 37.714 441.373 38.176 439.613 38.176C439.378 38.176 439.129 38.1687 438.865 38.154C438.615 38.1393 438.359 38.1247 438.095 38.11C437.244 38.0367 436.489 38 435.829 38H432.837V36.922L434.685 36.702V22.996L432.903 22.71V21.654H439.173V22.71L437.017 22.996V28.1L439.921 28.078ZM453.737 21.654V22.754L451.691 23.018V36.702L453.737 36.944V38H447.269V36.922L449.315 36.702V23.018L447.269 22.754V21.654H453.737ZM437.017 36.79C437.398 36.8633 437.728 36.9147 438.007 36.944C438.3 36.9733 438.696 36.988 439.195 36.988C440.427 36.988 441.365 36.6433 442.011 35.954C442.671 35.2647 443.001 34.282 443.001 33.006C443.001 31.7887 442.678 30.8793 442.033 30.278C441.387 29.662 440.463 29.354 439.261 29.354L437.017 29.376V36.79ZM475.277 36.68C475.277 36.8707 475.196 37.8093 475.035 39.496C474.873 41.1827 474.785 42.048 474.771 42.092H473.363C473.333 41.5493 473.267 40.7573 473.165 39.716C473.077 38.6747 473.011 38.1027 472.967 38H462.913C462.854 38.0587 462.707 38.616 462.473 39.672C462.253 40.728 462.084 41.542 461.967 42.114H460.537C460.551 41.5273 460.581 40.6473 460.625 39.474C460.683 38.3153 460.735 37.384 460.779 36.68H462.385C462.737 36.24 463.118 35.5213 463.529 34.524C463.954 33.512 464.335 32.148 464.673 30.432C465.01 28.7013 465.179 26.6773 465.179 24.36V23.018L462.913 22.754V21.654H475.365V22.754L473.297 23.018V36.68H475.277ZM466.543 24.492C466.557 26.5747 466.433 28.4667 466.169 30.168C465.905 31.8547 465.589 33.248 465.223 34.348C464.871 35.448 464.548 36.2253 464.255 36.68H470.965L470.987 22.93H466.543V24.492ZM479.135 23.018L477.331 22.754V21.654H480.301C480.8 21.654 481.43 21.6247 482.193 21.566C482.897 21.5073 483.418 21.478 483.755 21.478C485.779 21.478 487.224 21.7933 488.089 22.424C488.969 23.0547 489.409 23.9787 489.409 25.196C489.409 26.2373 489.108 27.132 488.507 27.88C487.906 28.628 487.084 29.0973 486.043 29.288C487.451 29.2587 488.558 29.5887 489.365 30.278C490.172 30.9673 490.575 31.906 490.575 33.094C490.575 34.5753 490.047 35.7853 488.991 36.724C487.95 37.6627 486.219 38.132 483.799 38.132C483.271 38.132 482.765 38.11 482.281 38.066C481.137 38.022 480.455 38 480.235 38H477.309V36.922L479.135 36.702V23.018ZM481.467 28.87C481.672 28.8847 482.09 28.892 482.721 28.892H483.931C484.958 28.892 485.735 28.606 486.263 28.034C486.791 27.462 487.055 26.648 487.055 25.592C487.055 24.5653 486.791 23.8173 486.263 23.348C485.735 22.864 484.833 22.622 483.557 22.622C483.029 22.622 482.486 22.6513 481.929 22.71L481.467 22.754V28.87ZM481.467 36.768C481.804 36.8853 482.567 36.944 483.755 36.944C485.236 36.944 486.307 36.6433 486.967 36.042C487.642 35.426 487.979 34.546 487.979 33.402C487.979 32.2727 487.686 31.4513 487.099 30.938C486.527 30.4247 485.596 30.168 484.305 30.168C482.809 30.168 481.863 30.1827 481.467 30.212V36.768ZM498.727 21.654V22.754L496.571 23.018V34.062L498.375 31.356L504.711 23.612V23.018L502.753 22.754V21.654H508.803V22.754L507.043 23.018V36.702L508.913 36.922V38H502.775V36.922L504.711 36.702V25.504L503.083 28.056L496.571 35.91V36.702L498.639 36.922V38H492.435V36.922L494.261 36.702V23.018L492.501 22.754V21.654H498.727ZM522.13 21.654L522.284 27.44H520.81L520.172 22.974L515.332 22.798V36.68L519.16 36.922V38H510.536V36.922L512.956 36.68V23.04L510.602 22.732V21.654H522.13ZM528.976 21.522H531.396L536.742 36.702L538.106 36.922V38H532.298V36.922L534.124 36.702L533.09 33.446H526.666L525.632 36.702L527.524 36.922V38H522.31V36.922L523.674 36.702L528.976 21.522ZM530.362 25.042L529.812 23.106L529.284 25.086L527.062 32.148H532.672L530.362 25.042ZM546.628 28.936C546.775 27.396 547.193 26.0613 547.882 24.932C548.571 23.8027 549.437 22.9447 550.478 22.358C551.534 21.7567 552.671 21.4633 553.888 21.478C555.325 21.478 556.55 21.8153 557.562 22.49C558.589 23.15 559.366 24.0813 559.894 25.284C560.422 26.472 560.686 27.858 560.686 29.442C560.686 31.2167 560.371 32.7713 559.74 34.106C559.124 35.426 558.273 36.438 557.188 37.142C556.117 37.846 554.915 38.198 553.58 38.198C552.099 38.198 550.837 37.8753 549.796 37.23C548.755 36.57 547.963 35.646 547.42 34.458C546.877 33.2553 546.599 31.8547 546.584 30.256H543.064V36.68L544.956 36.922V38H538.906V36.922L540.71 36.68V23.018L538.95 22.754V21.654H544.868V22.754L543.042 23.018V28.936H546.628ZM553.734 22.666C552.341 22.666 551.226 23.2747 550.39 24.492C549.554 25.7093 549.136 27.5353 549.136 29.97C549.136 32.0967 549.532 33.798 550.324 35.074C551.131 36.35 552.26 36.988 553.712 36.988C555.105 36.988 556.183 36.372 556.946 35.14C557.723 33.8933 558.112 32.06 558.112 29.64C558.112 27.5133 557.731 25.8193 556.968 24.558C556.205 23.2967 555.127 22.666 553.734 22.666ZM567.862 22.82L564.078 22.952L563.308 27.55H561.856L562.23 21.654H575.936L576.2 27.55H574.814L574.088 22.952L570.282 22.82V36.702L573.406 36.922V38H565.002V36.922L567.862 36.702V22.82ZM584.774 23.018L582.97 22.754V21.654H585.94C586.438 21.654 587.069 21.6247 587.832 21.566C588.536 21.5073 589.056 21.478 589.394 21.478C591.418 21.478 592.862 21.7933 593.728 22.424C594.608 23.0547 595.048 23.9787 595.048 25.196C595.048 26.2373 594.747 27.132 594.146 27.88C593.544 28.628 592.723 29.0973 591.682 29.288C593.09 29.2587 594.197 29.5887 595.004 30.278C595.81 30.9673 596.214 31.906 596.214 33.094C596.214 34.5753 595.686 35.7853 594.63 36.724C593.588 37.6627 591.858 38.132 589.438 38.132C588.91 38.132 588.404 38.11 587.92 38.066C586.776 38.022 586.094 38 585.874 38H582.948V36.922L584.774 36.702V23.018ZM587.106 28.87C587.311 28.8847 587.729 28.892 588.36 28.892H589.57C590.596 28.892 591.374 28.606 591.902 28.034C592.43 27.462 592.694 26.648 592.694 25.592C592.694 24.5653 592.43 23.8173 591.902 23.348C591.374 22.864 590.472 22.622 589.196 22.622C588.668 22.622 588.125 22.6513 587.568 22.71L587.106 22.754V28.87ZM587.106 36.768C587.443 36.8853 588.206 36.944 589.394 36.944C590.875 36.944 591.946 36.6433 592.606 36.042C593.28 35.426 593.618 34.546 593.618 33.402C593.618 32.2727 593.324 31.4513 592.738 30.938C592.166 30.4247 591.234 30.168 589.944 30.168C588.448 30.168 587.502 30.1827 587.106 30.212V36.768ZM613.474 21.654V22.754L611.604 23.04V36.68L613.65 36.922V38H607.446V36.922L609.272 36.68V22.952H602.232V36.702L604.278 36.922V38H598.118V36.922L599.9 36.702V23.018L598.03 22.754V21.654H613.474ZM617.344 23.018L615.54 22.754V21.654H626.738L627.046 25.064H625.792L625.154 22.93L619.698 22.798V29.002L623.372 28.936L623.68 27.11H624.89V32.17H623.68L623.372 30.278L619.698 30.212V36.768L625.902 36.548L627.068 33.776L628.366 34.172L627.728 38H615.518V36.922L617.344 36.702V23.018ZM631.718 23.018L630.002 22.754V21.654H632.928C633.456 21.654 633.977 21.632 634.49 21.588C635.282 21.5293 636.03 21.5 636.734 21.5C638.861 21.5147 640.364 21.9107 641.244 22.688C642.124 23.4653 642.564 24.6387 642.564 26.208C642.564 27.3813 642.293 28.4007 641.75 29.266C641.207 30.1313 640.452 30.7913 639.484 31.246C638.531 31.7007 637.431 31.928 636.184 31.928C635.759 31.928 635.326 31.9207 634.886 31.906C634.446 31.8767 634.175 31.8547 634.072 31.84V36.68L637.086 36.922V38H629.892V36.922L631.718 36.702V23.018ZM634.072 30.63C634.483 30.7033 635.187 30.74 636.184 30.74C637.343 30.74 638.281 30.388 639 29.684C639.733 28.98 640.1 27.8287 640.1 26.23C640.1 24.9687 639.785 24.0667 639.154 23.524C638.523 22.9667 637.541 22.688 636.206 22.688C635.737 22.688 635.238 22.7173 634.71 22.776C634.387 22.8053 634.175 22.82 634.072 22.82V30.63ZM645.961 23.018L644.157 22.754V21.654H655.355L655.663 25.064H654.409L653.771 22.93L648.315 22.798V29.002L651.989 28.936L652.297 27.11H653.507V32.17H652.297L651.989 30.278L648.315 30.212V36.768L654.519 36.548L655.685 33.776L656.983 34.172L656.345 38H644.135V36.922L645.961 36.702V23.018ZM647.435 19.982C647.068 19.982 646.775 19.85 646.555 19.586C646.335 19.3073 646.225 18.9773 646.225 18.596C646.225 18.1267 646.342 17.738 646.577 17.43C646.826 17.122 647.186 16.968 647.655 16.968H647.677C648.088 16.968 648.41 17.1073 648.645 17.386C648.88 17.6647 648.997 17.9947 648.997 18.376C648.997 18.8453 648.865 19.234 648.601 19.542C648.337 19.8353 647.956 19.982 647.457 19.982H647.435ZM652.825 19.982C652.458 19.982 652.158 19.85 651.923 19.586C651.703 19.3073 651.593 18.9773 651.593 18.596C651.593 18.1413 651.718 17.76 651.967 17.452C652.216 17.1293 652.568 16.968 653.023 16.968H653.045C653.456 16.968 653.771 17.1073 653.991 17.386C654.226 17.6647 654.343 17.9947 654.343 18.376C654.343 18.8453 654.211 19.234 653.947 19.542C653.698 19.8353 653.324 19.982 652.825 19.982ZM672.589 36.68C672.589 36.8707 672.508 37.8093 672.347 39.496C672.186 41.1827 672.098 42.048 672.083 42.092H670.675C670.646 41.5493 670.58 40.7573 670.477 39.716C670.389 38.6747 670.323 38.1027 670.279 38H660.225C660.166 38.0587 660.02 38.616 659.785 39.672C659.565 40.728 659.396 41.542 659.279 42.114H657.849C657.864 41.5273 657.893 40.6473 657.937 39.474C657.996 38.3153 658.047 37.384 658.091 36.68H659.697C660.049 36.24 660.43 35.5213 660.841 34.524C661.266 33.512 661.648 32.148 661.985 30.432C662.322 28.7013 662.491 26.6773 662.491 24.36V23.018L660.225 22.754V21.654H672.677V22.754L670.609 23.018V36.68H672.589ZM663.855 24.492C663.87 26.5747 663.745 28.4667 663.481 30.168C663.217 31.8547 662.902 33.248 662.535 34.348C662.183 35.448 661.86 36.2253 661.567 36.68H668.277L668.299 22.93H663.855V24.492ZM681.712 23.018L679.974 22.754V21.654H685.958V22.754L684.066 23.018V28.936H691.81V23.018L690.028 22.754V21.654H695.924V22.754L694.186 23.018V36.702L695.924 36.922V38H690.006V36.922L691.81 36.702V30.3H684.066V36.702L685.98 36.922V38H679.93V36.922L681.712 36.702V23.018ZM699.887 23.018L698.083 22.754V21.654H709.281L709.589 25.064H708.335L707.697 22.93L702.241 22.798V29.002L705.915 28.936L706.223 27.11H707.433V32.17H706.223L705.915 30.278L702.241 30.212V36.768L708.445 36.548L709.611 33.776L710.909 34.172L710.271 38H698.061V36.922L699.887 36.702V23.018ZM722.98 22.82L719.196 22.952L718.426 27.55H716.974L717.348 21.654H731.054L731.318 27.55H729.932L729.206 22.952L725.4 22.82V36.702L728.524 36.922V38H720.12V36.922L722.98 36.702V22.82ZM739.51 38.242C738.014 38.242 736.745 37.8973 735.704 37.208C734.677 36.5187 733.9 35.5507 733.372 34.304C732.844 33.0427 732.58 31.5833 732.58 29.926C732.58 28.2393 732.895 26.758 733.526 25.482C734.171 24.206 735.051 23.2233 736.166 22.534C737.281 21.83 738.535 21.478 739.928 21.478C742.216 21.478 743.961 22.204 745.164 23.656C746.381 25.0933 746.99 27.088 746.99 29.64C746.99 31.356 746.66 32.8667 746 34.172C745.355 35.4627 744.46 36.4673 743.316 37.186C742.187 37.89 740.918 38.242 739.51 38.242ZM739.796 22.622C738.373 22.622 737.251 23.2453 736.43 24.492C735.609 25.724 735.198 27.5353 735.198 29.926C735.198 32.126 735.594 33.8713 736.386 35.162C737.193 36.438 738.315 37.076 739.752 37.076C741.16 37.076 742.275 36.438 743.096 35.162C743.932 33.886 744.35 32.0527 744.35 29.662C744.35 27.4473 743.954 25.724 743.162 24.492C742.37 23.2453 741.248 22.622 739.796 22.622ZM754.221 24.998C754.221 27.638 754.067 29.97 753.759 31.994C753.466 34.0033 753.018 35.5287 752.417 36.57C752.109 37.098 751.757 37.4867 751.361 37.736C750.965 37.9853 750.496 38.11 749.953 38.11C749.249 38.11 748.728 38.0733 748.391 38L748.237 36.218C748.574 36.262 749.124 36.284 749.887 36.284C750.166 36.284 750.408 36.2253 750.613 36.108C750.818 35.976 751.009 35.756 751.185 35.448C752.3 33.7173 752.857 30.1533 752.857 24.756V23.018L750.327 22.754V21.654H763.043V22.754L760.997 23.018V36.702L763.175 36.922V38H756.399V36.922L758.665 36.68L758.687 23.018H754.221V24.998ZM772.026 28.078C773.816 28.078 775.187 28.5033 776.14 29.354C777.094 30.19 777.57 31.3633 777.57 32.874C777.57 34.5607 777.035 35.866 775.964 36.79C774.894 37.714 773.478 38.176 771.718 38.176C771.484 38.176 771.234 38.1687 770.97 38.154C770.721 38.1393 770.464 38.1247 770.2 38.11C769.35 38.0367 768.594 38 767.934 38H764.942V36.922L766.79 36.702V22.996L765.008 22.71V21.654H771.278V22.71L769.122 22.996V28.1L772.026 28.078ZM769.122 36.79C769.504 36.8633 769.834 36.9147 770.112 36.944C770.406 36.9733 770.802 36.988 771.3 36.988C772.532 36.988 773.471 36.6433 774.116 35.954C774.776 35.2647 775.106 34.282 775.106 33.006C775.106 31.7887 774.784 30.8793 774.138 30.278C773.493 29.662 772.569 29.354 771.366 29.354L769.122 29.376V36.79ZM786.732 29.442C787.318 29.662 787.905 30.1533 788.492 30.916C789.078 31.664 789.782 32.6833 790.604 33.974C791.161 34.8833 791.594 35.5507 791.902 35.976C792.21 36.3867 792.474 36.6213 792.694 36.68L793.53 36.922V38H790.802C790.464 38 790.083 37.714 789.658 37.142C789.247 36.5553 788.712 35.668 788.052 34.48C787.304 33.1453 786.68 32.1333 786.182 31.444C785.683 30.7547 785.206 30.41 784.752 30.41H783.344V36.68L785.302 36.944V38H779.274V36.9L781.056 36.68V23.018L779.274 22.754V21.654H785.17V22.754L783.344 23.018V29.354H785.236L789.68 23.018L787.832 22.754V21.654H793.244V22.754L791.506 23.018L786.732 29.442ZM801.342 38.242C799.846 38.242 798.577 37.8973 797.536 37.208C796.509 36.5187 795.732 35.5507 795.204 34.304C794.676 33.0427 794.412 31.5833 794.412 29.926C794.412 28.2393 794.727 26.758 795.358 25.482C796.003 24.206 796.883 23.2233 797.998 22.534C799.113 21.83 800.367 21.478 801.76 21.478C804.048 21.478 805.793 22.204 806.996 23.656C808.213 25.0933 808.822 27.088 808.822 29.64C808.822 31.356 808.492 32.8667 807.832 34.172C807.187 35.4627 806.292 36.4673 805.148 37.186C804.019 37.89 802.75 38.242 801.342 38.242ZM801.628 22.622C800.205 22.622 799.083 23.2453 798.262 24.492C797.441 25.724 797.03 27.5353 797.03 29.926C797.03 32.126 797.426 33.8713 798.218 35.162C799.025 36.438 800.147 37.076 801.584 37.076C802.992 37.076 804.107 36.438 804.928 35.162C805.764 33.886 806.182 32.0527 806.182 29.662C806.182 27.4473 805.786 25.724 804.994 24.492C804.202 23.2453 803.08 22.622 801.628 22.622ZM823.32 29.442C823.906 29.662 824.493 30.1533 825.08 30.916C825.666 31.664 826.37 32.6833 827.192 33.974C827.749 34.8833 828.182 35.5507 828.49 35.976C828.798 36.3867 829.062 36.6213 829.282 36.68L830.118 36.922V38H827.39C827.052 38 826.671 37.714 826.246 37.142C825.835 36.5553 825.3 35.668 824.64 34.48C823.892 33.1453 823.268 32.1333 822.77 31.444C822.271 30.7547 821.794 30.41 821.34 30.41H819.932V36.68L821.89 36.944V38H815.862V36.9L817.644 36.68V23.018L815.862 22.754V21.654H821.758V22.754L819.932 23.018V29.354H821.824L826.268 23.018L824.42 22.754V21.654H829.832V22.754L828.094 23.018L823.32 29.442ZM838.678 34.612C838.619 34.7293 838.443 35.1473 838.15 35.866C837.857 36.57 837.439 37.142 836.896 37.582C836.353 38.022 835.723 38.242 835.004 38.242C834.623 38.242 834.241 38.2053 833.86 38.132C833.493 38.0733 833.193 37.9927 832.958 37.89V36.328L834.52 36.35C835.195 36.35 835.693 36.218 836.016 35.954C836.339 35.6753 836.617 35.184 836.852 34.48L831.308 23.018L830.12 22.754V21.654H836.06V22.754L833.904 23.018L837.446 30.674L838.106 32.676L838.832 30.652L841.626 23.018L839.756 22.754V21.654H844.464V22.754L843.32 23.018L838.678 34.612ZM850.621 24.998C850.621 27.638 850.467 29.97 850.159 31.994C849.866 34.0033 849.419 35.5287 848.817 36.57C848.509 37.098 848.157 37.4867 847.761 37.736C847.365 37.9853 846.896 38.11 846.353 38.11C845.649 38.11 845.129 38.0733 844.791 38L844.637 36.218C844.975 36.262 845.525 36.284 846.287 36.284C846.566 36.284 846.808 36.2253 847.013 36.108C847.219 35.976 847.409 35.756 847.585 35.448C848.7 33.7173 849.257 30.1533 849.257 24.756V23.018L846.727 22.754V21.654H859.443V22.754L857.397 23.018V36.702L859.575 36.922V38H852.799V36.922L855.065 36.68L855.087 23.018H850.621V24.998ZM868.427 28.078C870.216 28.078 871.587 28.5033 872.541 29.354C873.494 30.19 873.971 31.3633 873.971 32.874C873.971 34.5607 873.435 35.866 872.365 36.79C871.294 37.714 869.879 38.176 868.119 38.176C867.884 38.176 867.635 38.1687 867.371 38.154C867.121 38.1393 866.865 38.1247 866.601 38.11C865.75 38.0367 864.995 38 864.335 38H861.343V36.922L863.191 36.702V22.996L861.409 22.71V21.654H867.679V22.71L865.523 22.996V28.1L868.427 28.078ZM865.523 36.79C865.904 36.8633 866.234 36.9147 866.513 36.944C866.806 36.9733 867.202 36.988 867.701 36.988C868.933 36.988 869.871 36.6433 870.517 35.954C871.177 35.2647 871.507 34.282 871.507 33.006C871.507 31.7887 871.184 30.8793 870.539 30.278C869.893 29.662 868.969 29.354 867.767 29.354L865.523 29.376V36.79ZM880.954 22.82L877.17 22.952L876.4 27.55H874.948L875.322 21.654H889.028L889.292 27.55H887.906L887.18 22.952L883.374 22.82V36.702L886.498 36.922V38H878.094V36.922L880.954 36.702V22.82ZM898.233 34.612C898.174 34.7293 897.998 35.1473 897.705 35.866C897.411 36.57 896.993 37.142 896.451 37.582C895.908 38.022 895.277 38.242 894.559 38.242C894.177 38.242 893.796 38.2053 893.415 38.132C893.048 38.0733 892.747 37.9927 892.513 37.89V36.328L894.075 36.35C894.749 36.35 895.248 36.218 895.571 35.954C895.893 35.6753 896.172 35.184 896.407 34.48L890.863 23.018L889.675 22.754V21.654H895.615V22.754L893.459 23.018L897.001 30.674L897.661 32.676L898.387 30.652L901.181 23.018L899.311 22.754V21.654H904.019V22.754L902.875 23.018L898.233 34.612ZM906.546 23.018L904.83 22.754V21.654H907.756C908.284 21.654 908.805 21.632 909.318 21.588C910.11 21.5293 910.858 21.5 911.562 21.5C913.689 21.5147 915.192 21.9107 916.072 22.688C916.952 23.4653 917.392 24.6387 917.392 26.208C917.392 27.3813 917.121 28.4007 916.578 29.266C916.035 30.1313 915.28 30.7913 914.312 31.246C913.359 31.7007 912.259 31.928 911.012 31.928C910.587 31.928 910.154 31.9207 909.714 31.906C909.274 31.8767 909.003 31.8547 908.9 31.84V36.68L911.914 36.922V38H904.72V36.922L906.546 36.702V23.018ZM908.9 30.63C909.311 30.7033 910.015 30.74 911.012 30.74C912.171 30.74 913.109 30.388 913.828 29.684C914.561 28.98 914.928 27.8287 914.928 26.23C914.928 24.9687 914.613 24.0667 913.982 23.524C913.351 22.9667 912.369 22.688 911.034 22.688C910.565 22.688 910.066 22.7173 909.538 22.776C909.215 22.8053 909.003 22.82 908.9 22.82V30.63ZM926.377 34.612C926.319 34.7293 926.143 35.1473 925.849 35.866C925.556 36.57 925.138 37.142 924.595 37.582C924.053 38.022 923.422 38.242 922.703 38.242C922.322 38.242 921.941 38.2053 921.559 38.132C921.193 38.0733 920.892 37.9927 920.657 37.89V36.328L922.219 36.35C922.894 36.35 923.393 36.218 923.715 35.954C924.038 35.6753 924.317 35.184 924.551 34.48L919.007 23.018L917.819 22.754V21.654H923.759V22.754L921.603 23.018L925.145 30.674L925.805 32.676L926.531 30.652L929.325 23.018L927.455 22.754V21.654H932.163V22.754L931.019 23.018L926.377 34.612ZM935.593 34.7C936.091 34.7 936.502 34.942 936.825 35.426C937.147 35.8953 937.309 36.5407 937.309 37.362C937.309 38.198 937.177 39.0047 936.913 39.782C936.649 40.5593 936.319 41.2193 935.923 41.762C935.527 42.3193 935.138 42.708 934.757 42.928H934.735L933.987 42.4V42.158C934.28 41.9233 934.573 41.41 934.867 40.618C935.175 39.8407 935.329 39.1 935.329 38.396C935.329 38.176 935.285 38 935.197 37.868C935.123 37.7213 934.999 37.5527 934.823 37.362C934.617 37.142 934.463 36.9367 934.361 36.746C934.258 36.5553 934.207 36.2987 934.207 35.976C934.207 35.5947 934.324 35.2867 934.559 35.052C934.808 34.8173 935.116 34.7 935.483 34.7H935.593ZM947.28 23.018L945.542 22.754V21.654H951.526V22.754L949.634 23.018V28.936H957.378V23.018L955.596 22.754V21.654H961.492V22.754L959.754 23.018V36.702L961.492 36.922V38H955.574V36.922L957.378 36.702V30.3H949.634V36.702L951.548 36.922V38H945.498V36.922L947.28 36.702V23.018ZM970.295 38.242C968.799 38.242 967.531 37.8973 966.489 37.208C965.463 36.5187 964.685 35.5507 964.157 34.304C963.629 33.0427 963.365 31.5833 963.365 29.926C963.365 28.2393 963.681 26.758 964.311 25.482C964.957 24.206 965.837 23.2233 966.951 22.534C968.066 21.83 969.32 21.478 970.713 21.478C973.001 21.478 974.747 22.204 975.949 23.656C977.167 25.0933 977.775 27.088 977.775 29.64C977.775 31.356 977.445 32.8667 976.785 34.172C976.14 35.4627 975.245 36.4673 974.101 37.186C972.972 37.89 971.703 38.242 970.295 38.242ZM970.581 22.622C969.159 22.622 968.037 23.2453 967.215 24.492C966.394 25.724 965.983 27.5353 965.983 29.926C965.983 32.126 966.379 33.8713 967.171 35.162C967.978 36.438 969.1 37.076 970.537 37.076C971.945 37.076 973.06 36.438 973.881 35.162C974.717 33.886 975.135 32.0527 975.135 29.662C975.135 27.4473 974.739 25.724 973.947 24.492C973.155 23.2453 972.033 22.622 970.581 22.622ZM991.085 21.654V22.754L988.929 23.018V34.062L990.733 31.356L997.069 23.612V23.018L995.111 22.754V21.654H1001.16V22.754L999.401 23.018V36.702L1001.27 36.922V38H995.133V36.922L997.069 36.702V25.504L995.441 28.056L988.929 35.91V36.702L990.997 36.922V38H984.793V36.922L986.619 36.702V23.018L984.859 22.754V21.654H991.085ZM1008.77 22.314C1009.14 22.2993 1009.61 22.204 1010.18 22.028C1010.83 21.852 1011.41 21.72 1011.94 21.632C1012.48 21.5293 1013.14 21.478 1013.92 21.478C1015.48 21.478 1016.81 21.8373 1017.93 22.556C1019.04 23.26 1019.88 24.25 1020.46 25.526C1021.04 26.802 1021.34 28.276 1021.34 29.948C1021.34 31.5907 1021.01 33.0427 1020.37 34.304C1019.72 35.5507 1018.81 36.5187 1017.64 37.208C1016.47 37.8973 1015.11 38.242 1013.57 38.242C1012.95 38.242 1012.42 38.198 1011.96 38.11C1011.51 38.022 1010.99 37.8973 1010.4 37.736C1009.74 37.5307 1009.24 37.428 1008.88 37.428L1008.49 34.172L1010.01 33.93L1010.89 36.108C1011.21 36.3573 1011.59 36.57 1012.03 36.746C1012.48 36.922 1013.1 37.01 1013.88 37.01C1014.8 37.01 1015.62 36.7533 1016.32 36.24C1017.04 35.712 1017.6 34.9493 1018.01 33.952C1018.42 32.94 1018.64 31.73 1018.65 30.322L1011.46 30.52V28.738L1018.59 28.936C1018.44 27.088 1017.96 25.5847 1017.13 24.426C1016.33 23.2673 1015.21 22.688 1013.77 22.688C1013.02 22.688 1012.44 22.7833 1012.03 22.974C1011.62 23.15 1011.24 23.392 1010.89 23.7L1010.29 25.812H1008.73L1008.77 22.314ZM1030.62 29.442C1031.21 29.662 1031.8 30.1533 1032.38 30.916C1032.97 31.664 1033.67 32.6833 1034.49 33.974C1035.05 34.8833 1035.48 35.5507 1035.79 35.976C1036.1 36.3867 1036.36 36.6213 1036.58 36.68L1037.42 36.922V38H1034.69C1034.36 38 1033.97 37.714 1033.55 37.142C1033.14 36.5553 1032.6 35.668 1031.94 34.48C1031.19 33.1453 1030.57 32.1333 1030.07 31.444C1029.57 30.7547 1029.1 30.41 1028.64 30.41H1027.23V36.68L1029.19 36.944V38H1023.16V36.9L1024.95 36.68V23.018L1023.16 22.754V21.654H1029.06V22.754L1027.23 23.018V29.354H1029.13L1033.57 23.018L1031.72 22.754V21.654H1037.13V22.754L1035.4 23.018L1030.62 29.442ZM1045.23 38.242C1043.74 38.242 1042.47 37.8973 1041.43 37.208C1040.4 36.5187 1039.62 35.5507 1039.09 34.304C1038.57 33.0427 1038.3 31.5833 1038.3 29.926C1038.3 28.2393 1038.62 26.758 1039.25 25.482C1039.89 24.206 1040.77 23.2233 1041.89 22.534C1043 21.83 1044.26 21.478 1045.65 21.478C1047.94 21.478 1049.68 22.204 1050.89 23.656C1052.1 25.0933 1052.71 27.088 1052.71 29.64C1052.71 31.356 1052.38 32.8667 1051.72 34.172C1051.08 35.4627 1050.18 36.4673 1049.04 37.186C1047.91 37.89 1046.64 38.242 1045.23 38.242ZM1045.52 22.622C1044.1 22.622 1042.97 23.2453 1042.15 24.492C1041.33 25.724 1040.92 27.5353 1040.92 29.926C1040.92 32.126 1041.32 33.8713 1042.11 35.162C1042.92 36.438 1044.04 37.076 1045.47 37.076C1046.88 37.076 1048 36.438 1048.82 35.162C1049.65 33.886 1050.07 32.0527 1050.07 29.662C1050.07 27.4473 1049.68 25.724 1048.88 24.492C1048.09 23.2453 1046.97 22.622 1045.52 22.622ZM1056.31 23.018L1054.58 22.754V21.654H1060.56V22.754L1058.67 23.018V28.936H1066.41V23.018L1064.63 22.754V21.654H1070.53V22.754L1068.79 23.018V36.702L1070.53 36.922V38H1064.61V36.922L1066.41 36.702V30.3H1058.67V36.702L1060.58 36.922V38H1054.53V36.922L1056.31 36.702V23.018ZM1079.33 38.242C1077.83 38.242 1076.56 37.8973 1075.52 37.208C1074.5 36.5187 1073.72 35.5507 1073.19 34.304C1072.66 33.0427 1072.4 31.5833 1072.4 29.926C1072.4 28.2393 1072.71 26.758 1073.34 25.482C1073.99 24.206 1074.87 23.2233 1075.98 22.534C1077.1 21.83 1078.35 21.478 1079.75 21.478C1082.03 21.478 1083.78 22.204 1084.98 23.656C1086.2 25.0933 1086.81 27.088 1086.81 29.64C1086.81 31.356 1086.48 32.8667 1085.82 34.172C1085.17 35.4627 1084.28 36.4673 1083.13 37.186C1082.01 37.89 1080.74 38.242 1079.33 38.242ZM1079.61 22.622C1078.19 22.622 1077.07 23.2453 1076.25 24.492C1075.43 25.724 1075.02 27.5353 1075.02 29.926C1075.02 32.126 1075.41 33.8713 1076.2 35.162C1077.01 36.438 1078.13 37.076 1079.57 37.076C1080.98 37.076 1082.09 36.438 1082.91 35.162C1083.75 33.886 1084.17 32.0527 1084.17 29.662C1084.17 27.4473 1083.77 25.724 1082.98 24.492C1082.19 23.2453 1081.07 22.622 1079.61 22.622ZM1091.14 23.018L1088.74 22.754V21.654H1094.57L1097.67 31.554L1098.4 34.348L1099.06 31.554L1102.14 21.654H1107.92V22.754L1105.5 23.018L1107.26 36.68L1109.18 36.922V38H1102.84V36.922L1104.84 36.702L1103.85 26.824L1103.39 22.578L1102.47 25.746L1098.79 37.252H1097.36L1093.8 26.714L1092.5 22.556L1092.1 26.824L1091.22 36.702L1093.4 36.922V38H1087.66V36.922L1089.53 36.702L1091.14 23.018ZM1116.68 21.654V22.754L1114.53 23.018V34.062L1116.33 31.356L1122.67 23.612V23.018L1120.71 22.754V21.654H1126.76V22.754L1125 23.018V36.702L1126.87 36.922V38H1120.73V36.922L1122.67 36.702V25.504L1121.04 28.056L1114.53 35.91V36.702L1116.59 36.922V38H1110.39V36.922L1112.22 36.702V23.018L1110.46 22.754V21.654H1116.68ZM1136.43 29.442C1137.02 29.662 1137.61 30.1533 1138.19 30.916C1138.78 31.664 1139.48 32.6833 1140.3 33.974C1140.86 34.8833 1141.3 35.5507 1141.6 35.976C1141.91 36.3867 1142.18 36.6213 1142.4 36.68L1143.23 36.922V38H1140.5C1140.17 38 1139.78 37.714 1139.36 37.142C1138.95 36.5553 1138.41 35.668 1137.75 34.48C1137.01 33.1453 1136.38 32.1333 1135.88 31.444C1135.38 30.7547 1134.91 30.41 1134.45 30.41H1133.05V36.68L1135 36.944V38H1128.98V36.9L1130.76 36.68V23.018L1128.98 22.754V21.654H1134.87V22.754L1133.05 23.018V29.354H1134.94L1139.38 23.018L1137.53 22.754V21.654H1142.95V22.754L1141.21 23.018L1136.43 29.442ZM1151.79 34.612C1151.73 34.7293 1151.56 35.1473 1151.26 35.866C1150.97 36.57 1150.55 37.142 1150.01 37.582C1149.47 38.022 1148.84 38.242 1148.12 38.242C1147.74 38.242 1147.35 38.2053 1146.97 38.132C1146.61 38.0733 1146.31 37.9927 1146.07 37.89V36.328L1147.63 36.35C1148.31 36.35 1148.81 36.218 1149.13 35.954C1149.45 35.6753 1149.73 35.184 1149.97 34.48L1144.42 23.018L1143.23 22.754V21.654H1149.17V22.754L1147.02 23.018L1150.56 30.674L1151.22 32.676L1151.95 30.652L1154.74 23.018L1152.87 22.754V21.654H1157.58V22.754L1156.43 23.018L1151.79 34.612ZM1161.73 32.764H1160.32L1159.66 18.574H1162.35L1161.73 32.764ZM1159.58 36.834C1159.58 36.394 1159.75 36.02 1160.08 35.712C1160.42 35.404 1160.8 35.25 1161.23 35.25C1161.7 35.25 1162.06 35.382 1162.3 35.646C1162.55 35.91 1162.68 36.24 1162.68 36.636C1162.68 37.1053 1162.51 37.4867 1162.17 37.78C1161.85 38.0733 1161.45 38.22 1160.98 38.22C1160.6 38.22 1160.27 38.0953 1159.99 37.846C1159.72 37.582 1159.58 37.2447 1159.58 36.834Z" fill="white"/>
<circle cx="1180" cy="30" r="3" fill="white"/>
<path d="M1201.72 24.998C1201.72 27.638 1201.56 29.97 1201.25 31.994C1200.96 34.0033 1200.51 35.5287 1199.91 36.57C1199.6 37.098 1199.25 37.4867 1198.86 37.736C1198.46 37.9853 1197.99 38.11 1197.45 38.11C1196.74 38.11 1196.22 38.0733 1195.89 38L1195.73 36.218C1196.07 36.262 1196.62 36.284 1197.38 36.284C1197.66 36.284 1197.9 36.2253 1198.11 36.108C1198.31 35.976 1198.5 35.756 1198.68 35.448C1199.79 33.7173 1200.35 30.1533 1200.35 24.756V23.018L1197.82 22.754V21.654H1210.54V22.754L1208.49 23.018V36.702L1210.67 36.922V38H1203.89V36.922L1206.16 36.68L1206.18 23.018H1201.72V24.998ZM1214.24 23.018L1212.44 22.754V21.654H1223.63L1223.94 25.064H1222.69L1222.05 22.93L1216.59 22.798V29.002L1220.27 28.936L1220.58 27.11H1221.79V32.17H1220.58L1220.27 30.278L1216.59 30.212V36.768L1222.8 36.548L1223.96 33.776L1225.26 34.172L1224.62 38H1212.41V36.922L1214.24 36.702V23.018ZM1215.71 19.982C1215.35 19.982 1215.05 19.85 1214.83 19.586C1214.61 19.3073 1214.5 18.9773 1214.5 18.596C1214.5 18.1267 1214.62 17.738 1214.86 17.43C1215.11 17.122 1215.47 16.968 1215.93 16.968H1215.96C1216.37 16.968 1216.69 17.1073 1216.92 17.386C1217.16 17.6647 1217.28 17.9947 1217.28 18.376C1217.28 18.8453 1217.14 19.234 1216.88 19.542C1216.62 19.8353 1216.24 19.982 1215.74 19.982H1215.71ZM1221.1 19.982C1220.74 19.982 1220.44 19.85 1220.2 19.586C1219.98 19.3073 1219.87 18.9773 1219.87 18.596C1219.87 18.1413 1220 17.76 1220.25 17.452C1220.5 17.1293 1220.85 16.968 1221.3 16.968H1221.32C1221.74 16.968 1222.05 17.1073 1222.27 17.386C1222.51 17.6647 1222.62 17.9947 1222.62 18.376C1222.62 18.8453 1222.49 19.234 1222.23 19.542C1221.98 19.8353 1221.6 19.982 1221.1 19.982ZM1240.87 36.68C1240.87 36.8707 1240.79 37.8093 1240.63 39.496C1240.47 41.1827 1240.38 42.048 1240.36 42.092H1238.95C1238.93 41.5493 1238.86 40.7573 1238.76 39.716C1238.67 38.6747 1238.6 38.1027 1238.56 38H1228.5C1228.45 38.0587 1228.3 38.616 1228.06 39.672C1227.84 40.728 1227.68 41.542 1227.56 42.114H1226.13C1226.14 41.5273 1226.17 40.6473 1226.22 39.474C1226.28 38.3153 1226.33 37.384 1226.37 36.68H1227.98C1228.33 36.24 1228.71 35.5213 1229.12 34.524C1229.55 33.512 1229.93 32.148 1230.26 30.432C1230.6 28.7013 1230.77 26.6773 1230.77 24.36V23.018L1228.5 22.754V21.654H1240.96V22.754L1238.89 23.018V36.68H1240.87ZM1232.13 24.492C1232.15 26.5747 1232.02 28.4667 1231.76 30.168C1231.5 31.8547 1231.18 33.248 1230.81 34.348C1230.46 35.448 1230.14 36.2253 1229.85 36.68H1236.56L1236.58 22.93H1232.13V24.492ZM1253.49 22.82L1249.71 22.952L1248.94 27.55H1247.48L1247.86 21.654H1261.56L1261.83 27.55H1260.44L1259.72 22.952L1255.91 22.82V36.702L1259.03 36.922V38H1250.63V36.922L1253.49 36.702V22.82ZM1265.22 23.018L1263.51 22.754V21.654H1266.43C1266.96 21.654 1267.48 21.632 1268 21.588C1268.79 21.5293 1269.54 21.5 1270.24 21.5C1272.37 21.5147 1273.87 21.9107 1274.75 22.688C1275.63 23.4653 1276.07 24.6387 1276.07 26.208C1276.07 27.3813 1275.8 28.4007 1275.26 29.266C1274.71 30.1313 1273.96 30.7913 1272.99 31.246C1272.04 31.7007 1270.94 31.928 1269.69 31.928C1269.26 31.928 1268.83 31.9207 1268.39 31.906C1267.95 31.8767 1267.68 31.8547 1267.58 31.84V36.68L1270.59 36.922V38H1263.4V36.922L1265.22 36.702V23.018ZM1267.58 30.63C1267.99 30.7033 1268.69 30.74 1269.69 30.74C1270.85 30.74 1271.79 30.388 1272.51 29.684C1273.24 28.98 1273.61 27.8287 1273.61 26.23C1273.61 24.9687 1273.29 24.0667 1272.66 23.524C1272.03 22.9667 1271.05 22.688 1269.71 22.688C1269.24 22.688 1268.74 22.7173 1268.22 22.776C1267.89 22.8053 1267.68 22.82 1267.58 22.82V30.63ZM1284.31 38.242C1282.81 38.242 1281.54 37.8973 1280.5 37.208C1279.47 36.5187 1278.7 35.5507 1278.17 34.304C1277.64 33.0427 1277.38 31.5833 1277.38 29.926C1277.38 28.2393 1277.69 26.758 1278.32 25.482C1278.97 24.206 1279.85 23.2233 1280.96 22.534C1282.08 21.83 1283.33 21.478 1284.72 21.478C1287.01 21.478 1288.76 22.204 1289.96 23.656C1291.18 25.0933 1291.79 27.088 1291.79 29.64C1291.79 31.356 1291.46 32.8667 1290.8 34.172C1290.15 35.4627 1289.26 36.4673 1288.11 37.186C1286.98 37.89 1285.71 38.242 1284.31 38.242ZM1284.59 22.622C1283.17 22.622 1282.05 23.2453 1281.23 24.492C1280.41 25.724 1279.99 27.5353 1279.99 29.926C1279.99 32.126 1280.39 33.8713 1281.18 35.162C1281.99 36.438 1283.11 37.076 1284.55 37.076C1285.96 37.076 1287.07 36.438 1287.89 35.162C1288.73 33.886 1289.15 32.0527 1289.15 29.662C1289.15 27.4473 1288.75 25.724 1287.96 24.492C1287.17 23.2453 1286.04 22.622 1284.59 22.622ZM1295.39 23.018L1293.65 22.754V21.654H1299.63V22.754L1297.74 23.018V28.936H1305.49V23.018L1303.7 22.754V21.654H1309.6V22.754L1307.86 23.018V36.702L1309.6 36.922V38H1303.68V36.922L1305.49 36.702V30.3H1297.74V36.702L1299.66 36.922V38H1293.61V36.922L1295.39 36.702V23.018ZM1319.15 34.612C1319.09 34.7293 1318.92 35.1473 1318.62 35.866C1318.33 36.57 1317.91 37.142 1317.37 37.582C1316.83 38.022 1316.2 38.242 1315.48 38.242C1315.1 38.242 1314.71 38.2053 1314.33 38.132C1313.97 38.0733 1313.67 37.9927 1313.43 37.89V36.328L1314.99 36.35C1315.67 36.35 1316.17 36.218 1316.49 35.954C1316.81 35.6753 1317.09 35.184 1317.32 34.48L1311.78 23.018L1310.59 22.754V21.654H1316.53V22.754L1314.38 23.018L1317.92 30.674L1318.58 32.676L1319.3 30.652L1322.1 23.018L1320.23 22.754V21.654H1324.94V22.754L1323.79 23.018L1319.15 34.612ZM1331.09 24.998C1331.09 27.638 1330.94 29.97 1330.63 31.994C1330.34 34.0033 1329.89 35.5287 1329.29 36.57C1328.98 37.098 1328.63 37.4867 1328.23 37.736C1327.84 37.9853 1327.37 38.11 1326.83 38.11C1326.12 38.11 1325.6 38.0733 1325.26 38L1325.11 36.218C1325.45 36.262 1326 36.284 1326.76 36.284C1327.04 36.284 1327.28 36.2253 1327.49 36.108C1327.69 35.976 1327.88 35.756 1328.06 35.448C1329.17 33.7173 1329.73 30.1533 1329.73 24.756V23.018L1327.2 22.754V21.654H1339.92V22.754L1337.87 23.018V36.702L1340.05 36.922V38H1333.27V36.922L1335.54 36.68L1335.56 23.018H1331.09V24.998ZM1349.1 38.242C1347.48 38.242 1346.11 37.8973 1344.96 37.208C1343.83 36.504 1342.97 35.5213 1342.39 34.26C1341.8 32.9987 1341.51 31.5173 1341.51 29.816C1341.51 28.1733 1341.85 26.7213 1342.54 25.46C1343.23 24.1987 1344.18 23.2233 1345.38 22.534C1346.58 21.83 1347.93 21.478 1349.43 21.478C1350.56 21.478 1351.91 21.654 1353.5 22.006L1354.22 22.138L1354 26.098H1352.53L1351.98 23.304C1351.77 23.128 1351.41 22.9813 1350.9 22.864C1350.4 22.732 1349.79 22.666 1349.05 22.666C1348.11 22.666 1347.28 22.9373 1346.55 23.48C1345.81 24.008 1345.23 24.7927 1344.81 25.834C1344.4 26.8753 1344.19 28.122 1344.19 29.574C1344.19 30.9527 1344.37 32.2067 1344.74 33.336C1345.11 34.4653 1345.67 35.3673 1346.41 36.042C1347.16 36.702 1348.09 37.032 1349.19 37.032C1349.96 37.032 1350.56 36.966 1350.97 36.834C1351.39 36.702 1351.75 36.5113 1352.05 36.262L1352.97 34.106L1354.36 34.282L1353.83 37.406C1353.52 37.4207 1353.06 37.5233 1352.46 37.714C1351.94 37.8753 1351.42 38 1350.92 38.088C1350.44 38.1907 1349.83 38.242 1349.1 38.242ZM1363.32 30.85H1362.24C1361.89 31.0993 1361.53 31.5613 1361.16 32.236C1360.81 32.9107 1360.4 33.7907 1359.95 34.876C1359.5 35.9173 1359.12 36.702 1358.83 37.23C1358.55 37.7433 1358.29 38 1358.06 38H1355.07V36.922L1355.92 36.68C1356.14 36.636 1356.37 36.4307 1356.61 36.064C1356.86 35.6827 1357.21 35.0667 1357.68 34.216C1358.17 33.248 1358.62 32.456 1359.03 31.84C1359.44 31.224 1359.85 30.7987 1360.28 30.564C1359.28 30.2853 1358.5 29.7573 1357.93 28.98C1357.37 28.188 1357.09 27.242 1357.09 26.142C1357.09 24.382 1357.61 23.1647 1358.65 22.49C1359.71 21.8153 1361.21 21.478 1363.16 21.478C1363.59 21.478 1364.14 21.5073 1364.81 21.566C1365.52 21.6247 1366.05 21.654 1366.42 21.654H1369.61V22.754L1367.76 23.018V36.702L1369.78 36.922V38H1363.29V36.922L1365.41 36.702V30.85H1363.32ZM1364.83 22.776C1364.17 22.7027 1363.59 22.666 1363.07 22.666C1361.93 22.666 1361.05 22.908 1360.43 23.392C1359.83 23.876 1359.53 24.7413 1359.53 25.988C1359.53 27.176 1359.83 28.0853 1360.43 28.716C1361.05 29.3467 1361.93 29.662 1363.07 29.662C1364.25 29.662 1365.02 29.64 1365.41 29.596V22.842L1364.83 22.776ZM1374.43 34.7C1374.93 34.7 1375.34 34.942 1375.66 35.426C1375.98 35.8953 1376.14 36.5407 1376.14 37.362C1376.14 38.198 1376.01 39.0047 1375.75 39.782C1375.48 40.5593 1375.15 41.2193 1374.76 41.762C1374.36 42.3193 1373.97 42.708 1373.59 42.928H1373.57L1372.82 42.4V42.158C1373.12 41.9233 1373.41 41.41 1373.7 40.618C1374.01 39.8407 1374.16 39.1 1374.16 38.396C1374.16 38.176 1374.12 38 1374.03 37.868C1373.96 37.7213 1373.83 37.5527 1373.66 37.362C1373.45 37.142 1373.3 36.9367 1373.2 36.746C1373.09 36.5553 1373.04 36.2987 1373.04 35.976C1373.04 35.5947 1373.16 35.2867 1373.39 35.052C1373.64 34.8173 1373.95 34.7 1374.32 34.7H1374.43ZM1395.44 21.654L1395.6 27.44H1394.12L1393.49 22.974L1388.65 22.798V36.68L1392.47 36.922V38H1383.85V36.922L1386.27 36.68V23.04L1383.92 22.732V21.654H1395.44ZM1403.59 38.242C1402.09 38.242 1400.82 37.8973 1399.78 37.208C1398.76 36.5187 1397.98 35.5507 1397.45 34.304C1396.92 33.0427 1396.66 31.5833 1396.66 29.926C1396.66 28.2393 1396.97 26.758 1397.6 25.482C1398.25 24.206 1399.13 23.2233 1400.24 22.534C1401.36 21.83 1402.61 21.478 1404.01 21.478C1406.29 21.478 1408.04 22.204 1409.24 23.656C1410.46 25.0933 1411.07 27.088 1411.07 29.64C1411.07 31.356 1410.74 32.8667 1410.08 34.172C1409.43 35.4627 1408.54 36.4673 1407.39 37.186C1406.26 37.89 1405 38.242 1403.59 38.242ZM1403.87 22.622C1402.45 22.622 1401.33 23.2453 1400.51 24.492C1399.69 25.724 1399.28 27.5353 1399.28 29.926C1399.28 32.126 1399.67 33.8713 1400.46 35.162C1401.27 36.438 1402.39 37.076 1403.83 37.076C1405.24 37.076 1406.35 36.438 1407.17 35.162C1408.01 33.886 1408.43 32.0527 1408.43 29.662C1408.43 27.4473 1408.03 25.724 1407.24 24.492C1406.45 23.2453 1405.33 22.622 1403.87 22.622ZM1420.1 38.242C1418.49 38.242 1417.11 37.8973 1415.97 37.208C1414.84 36.504 1413.98 35.5213 1413.39 34.26C1412.81 32.9987 1412.51 31.5173 1412.51 29.816C1412.51 28.1733 1412.86 26.7213 1413.55 25.46C1414.24 24.1987 1415.18 23.2233 1416.39 22.534C1417.59 21.83 1418.94 21.478 1420.43 21.478C1421.56 21.478 1422.92 21.654 1424.5 22.006L1425.23 22.138L1425.01 26.098H1423.54L1422.99 23.304C1422.78 23.128 1422.42 22.9813 1421.91 22.864C1421.41 22.732 1420.79 22.666 1420.06 22.666C1419.12 22.666 1418.28 22.9373 1417.55 23.48C1416.82 24.008 1416.24 24.7927 1415.81 25.834C1415.4 26.8753 1415.2 28.122 1415.2 29.574C1415.2 30.9527 1415.38 32.2067 1415.75 33.336C1416.11 34.4653 1416.67 35.3673 1417.42 36.042C1418.17 36.702 1419.09 37.032 1420.19 37.032C1420.97 37.032 1421.56 36.966 1421.97 36.834C1422.4 36.702 1422.76 36.5113 1423.05 36.262L1423.98 34.106L1425.36 34.282L1424.83 37.406C1424.53 37.4207 1424.07 37.5233 1423.47 37.714C1422.94 37.8753 1422.43 38 1421.93 38.088C1421.45 38.1907 1420.84 38.242 1420.1 38.242ZM1442.64 21.654V22.754L1440.77 23.04V36.68L1442.81 36.922V38H1436.61V36.922L1438.44 36.68V22.952H1431.4V36.702L1433.44 36.922V38H1427.28V36.922L1429.06 36.702V23.018L1427.19 22.754V21.654H1442.64ZM1451.35 38.242C1449.85 38.242 1448.58 37.8973 1447.54 37.208C1446.52 36.5187 1445.74 35.5507 1445.21 34.304C1444.68 33.0427 1444.42 31.5833 1444.42 29.926C1444.42 28.2393 1444.73 26.758 1445.36 25.482C1446.01 24.206 1446.89 23.2233 1448 22.534C1449.12 21.83 1450.37 21.478 1451.77 21.478C1454.05 21.478 1455.8 22.204 1457 23.656C1458.22 25.0933 1458.83 27.088 1458.83 29.64C1458.83 31.356 1458.5 32.8667 1457.84 34.172C1457.19 35.4627 1456.3 36.4673 1455.15 37.186C1454.02 37.89 1452.76 38.242 1451.35 38.242ZM1451.63 22.622C1450.21 22.622 1449.09 23.2453 1448.27 24.492C1447.45 25.724 1447.04 27.5353 1447.04 29.926C1447.04 32.126 1447.43 33.8713 1448.22 35.162C1449.03 36.438 1450.15 37.076 1451.59 37.076C1453 37.076 1454.11 36.438 1454.93 35.162C1455.77 33.886 1456.19 32.0527 1456.19 29.662C1456.19 27.4473 1455.79 25.724 1455 24.492C1454.21 23.2453 1453.09 22.622 1451.63 22.622ZM1474.68 36.68C1474.68 36.8707 1474.6 37.8093 1474.44 39.496C1474.28 41.1827 1474.19 42.048 1474.18 42.092H1472.77C1472.74 41.5493 1472.67 40.7573 1472.57 39.716C1472.48 38.6747 1472.42 38.1027 1472.37 38H1462.32C1462.26 38.0587 1462.11 38.616 1461.88 39.672C1461.66 40.728 1461.49 41.542 1461.37 42.114H1459.94C1459.96 41.5273 1459.99 40.6473 1460.03 39.474C1460.09 38.3153 1460.14 37.384 1460.18 36.68H1461.79C1462.14 36.24 1462.52 35.5213 1462.93 34.524C1463.36 33.512 1463.74 32.148 1464.08 30.432C1464.42 28.7013 1464.58 26.6773 1464.58 24.36V23.018L1462.32 22.754V21.654H1474.77V22.754L1472.7 23.018V36.68H1474.68ZM1465.95 24.492C1465.96 26.5747 1465.84 28.4667 1465.57 30.168C1465.31 31.8547 1465 33.248 1464.63 34.348C1464.28 35.448 1463.95 36.2253 1463.66 36.68H1470.37L1470.39 22.93H1465.95V24.492ZM1482.08 21.522H1484.5L1489.85 36.702L1491.21 36.922V38H1485.41V36.922L1487.23 36.702L1486.2 33.446H1479.77L1478.74 36.702L1480.63 36.922V38H1475.42V36.922L1476.78 36.702L1482.08 21.522ZM1483.47 25.042L1482.92 23.106L1482.39 25.086L1480.17 32.148H1485.78L1483.47 25.042ZM1512.63 21.654V22.754L1510.76 23.04V36.68L1512.81 36.922V38H1506.61V36.922L1508.43 36.68V22.952H1501.39V36.702L1503.44 36.922V38H1497.28V36.922L1499.06 36.702V23.018L1497.19 22.754V21.654H1512.63ZM1516.55 23.018L1514.83 22.754V21.654H1517.76C1518.29 21.654 1518.81 21.632 1519.32 21.588C1520.11 21.5293 1520.86 21.5 1521.56 21.5C1523.69 21.5147 1525.19 21.9107 1526.07 22.688C1526.95 23.4653 1527.39 24.6387 1527.39 26.208C1527.39 27.3813 1527.12 28.4007 1526.58 29.266C1526.04 30.1313 1525.28 30.7913 1524.31 31.246C1523.36 31.7007 1522.26 31.928 1521.01 31.928C1520.59 31.928 1520.16 31.9207 1519.72 31.906C1519.28 31.8767 1519 31.8547 1518.9 31.84V36.68L1521.92 36.922V38H1514.72V36.922L1516.55 36.702V23.018ZM1518.9 30.63C1519.31 30.7033 1520.02 30.74 1521.01 30.74C1522.17 30.74 1523.11 30.388 1523.83 29.684C1524.56 28.98 1524.93 27.8287 1524.93 26.23C1524.93 24.9687 1524.61 24.0667 1523.98 23.524C1523.35 22.9667 1522.37 22.688 1521.04 22.688C1520.57 22.688 1520.07 22.7173 1519.54 22.776C1519.22 22.8053 1519 22.82 1518.9 22.82V30.63ZM1535.32 21.654V22.754L1533.17 23.018V34.062L1534.97 31.356L1541.31 23.612V23.018L1539.35 22.754V21.654H1545.4V22.754L1543.64 23.018V36.702L1545.51 36.922V38H1539.37V36.922L1541.31 36.702V25.504L1539.68 28.056L1533.17 35.91V36.702L1535.24 36.922V38H1529.03V36.922L1530.86 36.702V23.018L1529.1 22.754V21.654H1535.32ZM1554.83 38.242C1553.22 38.242 1551.84 37.8973 1550.7 37.208C1549.57 36.504 1548.71 35.5213 1548.12 34.26C1547.53 32.9987 1547.24 31.5173 1547.24 29.816C1547.24 28.1733 1547.59 26.7213 1548.28 25.46C1548.96 24.1987 1549.91 23.2233 1551.11 22.534C1552.32 21.83 1553.67 21.478 1555.16 21.478C1556.29 21.478 1557.65 21.654 1559.23 22.006L1559.96 22.138L1559.74 26.098H1558.26L1557.71 23.304C1557.51 23.128 1557.15 22.9813 1556.64 22.864C1556.14 22.732 1555.52 22.666 1554.79 22.666C1553.85 22.666 1553.01 22.9373 1552.28 23.48C1551.55 24.008 1550.97 24.7927 1550.54 25.834C1550.13 26.8753 1549.93 28.122 1549.93 29.574C1549.93 30.9527 1550.11 32.2067 1550.48 33.336C1550.84 34.4653 1551.4 35.3673 1552.15 36.042C1552.9 36.702 1553.82 37.032 1554.92 37.032C1555.7 37.032 1556.29 36.966 1556.7 36.834C1557.13 36.702 1557.49 36.5113 1557.78 36.262L1558.7 34.106L1560.09 34.282L1559.56 37.406C1559.25 37.4207 1558.8 37.5233 1558.2 37.714C1557.67 37.8753 1557.16 38 1556.66 38.088C1556.17 38.1907 1555.56 38.242 1554.83 38.242ZM1569.05 30.85H1567.97C1567.62 31.0993 1567.26 31.5613 1566.89 32.236C1566.54 32.9107 1566.14 33.7907 1565.68 34.876C1565.23 35.9173 1564.86 36.702 1564.56 37.23C1564.28 37.7433 1564.03 38 1563.79 38H1560.8V36.922L1561.66 36.68C1561.88 36.636 1562.11 36.4307 1562.34 36.064C1562.59 35.6827 1562.95 35.0667 1563.42 34.216C1563.9 33.248 1564.35 32.456 1564.76 31.84C1565.17 31.224 1565.59 30.7987 1566.01 30.564C1565.02 30.2853 1564.23 29.7573 1563.66 28.98C1563.1 28.188 1562.82 27.242 1562.82 26.142C1562.82 24.382 1563.35 23.1647 1564.39 22.49C1565.44 21.8153 1566.95 21.478 1568.9 21.478C1569.32 21.478 1569.87 21.5073 1570.55 21.566C1571.25 21.6247 1571.79 21.654 1572.15 21.654H1575.34V22.754L1573.49 23.018V36.702L1575.52 36.922V38H1569.03V36.922L1571.14 36.702V30.85H1569.05ZM1570.57 22.776C1569.91 22.7027 1569.32 22.666 1568.81 22.666C1567.66 22.666 1566.78 22.908 1566.17 23.392C1565.57 23.876 1565.27 24.7413 1565.27 25.988C1565.27 27.176 1565.57 28.0853 1566.17 28.716C1566.78 29.3467 1567.66 29.662 1568.81 29.662C1569.98 29.662 1570.76 29.64 1571.14 29.596V22.842L1570.57 22.776ZM1592.37 29.464C1592.96 29.684 1593.55 30.1753 1594.13 30.938C1594.72 31.7007 1595.41 32.72 1596.2 33.996C1596.76 34.876 1597.19 35.5287 1597.5 35.954C1597.82 36.3793 1598.09 36.6213 1598.31 36.68L1599.17 36.922V38H1596.42C1596.08 38 1595.71 37.714 1595.3 37.142C1594.9 36.57 1594.36 35.6827 1593.67 34.48C1592.91 33.1453 1592.28 32.1333 1591.78 31.444C1591.28 30.7547 1590.8 30.41 1590.35 30.41H1588.96V36.68L1590.9 36.944V38H1584.87V36.922L1586.72 36.702V30.41H1585.33C1584.88 30.41 1584.39 30.762 1583.88 31.466C1583.37 32.1553 1582.74 33.16 1582.01 34.48C1581.32 35.6827 1580.77 36.57 1580.36 37.142C1579.95 37.714 1579.58 38 1579.24 38H1576.53V36.922L1577.35 36.68C1577.57 36.6213 1577.83 36.3793 1578.14 35.954C1578.46 35.5287 1578.9 34.876 1579.46 33.996C1580.25 32.7053 1580.94 31.6787 1581.53 30.916C1582.13 30.1533 1582.72 29.662 1583.31 29.442L1578.58 23.018L1576.84 22.754V21.654H1582.16V22.754L1580.45 23.018L1584.8 29.354H1586.72V23.018L1584.89 22.754V21.654H1590.85V22.754L1588.96 23.018V29.354H1590.88L1595.21 23.04L1593.49 22.754V21.654H1598.86V22.754L1597.1 23.018L1592.37 29.464ZM1602.18 23.018L1600.45 22.754V21.654H1606.43V22.754L1604.54 23.018V28.936H1612.28V23.018L1610.5 22.754V21.654H1616.4V22.754L1614.66 23.018V36.702L1616.4 36.922V38H1610.48V36.922L1612.28 36.702V30.3H1604.54V36.702L1606.45 36.922V38H1600.4V36.922L1602.18 36.702V23.018ZM1625.64 28.078C1627.43 28.078 1628.8 28.5033 1629.75 29.354C1630.71 30.19 1631.18 31.3633 1631.18 32.874C1631.18 34.5607 1630.65 35.866 1629.58 36.79C1628.51 37.714 1627.09 38.176 1625.33 38.176C1625.1 38.176 1624.85 38.1687 1624.58 38.154C1624.33 38.1393 1624.08 38.1247 1623.81 38.11C1622.96 38.0367 1622.21 38 1621.55 38H1618.56V36.922L1620.4 36.702V22.996L1618.62 22.71V21.654H1624.89V22.71L1622.74 22.996V28.1L1625.64 28.078ZM1639.46 21.654V22.754L1637.41 23.018V36.702L1639.46 36.944V38H1632.99V36.922L1635.03 36.702V23.018L1632.99 22.754V21.654H1639.46ZM1622.74 36.79C1623.12 36.8633 1623.45 36.9147 1623.73 36.944C1624.02 36.9733 1624.41 36.988 1624.91 36.988C1626.15 36.988 1627.08 36.6433 1627.73 35.954C1628.39 35.2647 1628.72 34.282 1628.72 33.006C1628.72 31.7887 1628.4 30.8793 1627.75 30.278C1627.11 29.662 1626.18 29.354 1624.98 29.354L1622.74 29.376V36.79ZM1643.48 23.018L1641.67 22.754V21.654H1652.87L1653.18 25.064H1651.92L1651.29 22.93L1645.83 22.798V29.002L1649.5 28.936L1649.81 27.11H1651.02V32.17H1649.81L1649.5 30.278L1645.83 30.212V36.768L1652.03 36.548L1653.2 33.776L1654.5 34.172L1653.86 38H1641.65V36.922L1643.48 36.702V23.018ZM1661.82 22.182C1662.05 22.1673 1662.52 22.0793 1663.23 21.918C1663.89 21.7713 1664.45 21.6613 1664.92 21.588C1665.39 21.5147 1665.84 21.478 1666.28 21.478C1668.12 21.478 1669.52 21.786 1670.51 22.402C1671.49 23.018 1671.98 23.9493 1671.98 25.196C1671.98 26.3693 1671.61 27.308 1670.86 28.012C1670.13 28.716 1669.24 29.1707 1668.2 29.376C1669.56 29.4053 1670.61 29.7793 1671.34 30.498C1672.09 31.202 1672.47 32.104 1672.47 33.204C1672.47 34.788 1671.97 36.0053 1670.99 36.856C1670.02 37.7067 1668.48 38.132 1666.35 38.132C1665.47 38.132 1664.69 38.0587 1664.02 37.912C1663.34 37.7653 1662.81 37.6333 1662.41 37.516C1662.03 37.384 1661.8 37.3033 1661.71 37.274L1662.1 33.468H1663.2L1663.82 36.328C1664.52 36.7093 1665.51 36.9 1666.77 36.9C1667.75 36.9 1668.49 36.6067 1668.99 36.02C1669.5 35.4333 1669.76 34.5533 1669.76 33.38C1669.76 32.4707 1669.49 31.708 1668.95 31.092C1668.4 30.476 1667.47 30.168 1666.15 30.168H1664.61V28.936H1665.89C1666.5 28.936 1667.08 28.8113 1667.63 28.562C1668.18 28.3127 1668.63 27.9313 1668.97 27.418C1669.3 26.89 1669.47 26.252 1669.47 25.504C1669.47 24.5213 1669.19 23.8027 1668.64 23.348C1668.09 22.8933 1667.34 22.666 1666.37 22.666C1665.73 22.666 1665.18 22.7467 1664.72 22.908C1664.28 23.0693 1663.99 23.2747 1663.84 23.524L1663.42 25.57H1662.04L1661.82 22.182ZM1679.95 21.522H1682.37L1687.72 36.702L1689.08 36.922V38H1683.28V36.922L1685.1 36.702L1684.07 33.446H1677.64L1676.61 36.702L1678.5 36.922V38H1673.29V36.922L1674.65 36.702L1679.95 21.522ZM1681.34 25.042L1680.79 23.106L1680.26 25.086L1678.04 32.148H1683.65L1681.34 25.042ZM1697.12 38.242C1695.51 38.242 1694.13 37.8973 1692.99 37.208C1691.86 36.504 1691 35.5213 1690.41 34.26C1689.83 32.9987 1689.53 31.5173 1689.53 29.816C1689.53 28.1733 1689.88 26.7213 1690.57 25.46C1691.26 24.1987 1692.2 23.2233 1693.4 22.534C1694.61 21.83 1695.96 21.478 1697.45 21.478C1698.58 21.478 1699.94 21.654 1701.52 22.006L1702.25 22.138L1702.03 26.098H1700.55L1700 23.304C1699.8 23.128 1699.44 22.9813 1698.93 22.864C1698.43 22.732 1697.81 22.666 1697.08 22.666C1696.14 22.666 1695.3 22.9373 1694.57 23.48C1693.84 24.008 1693.26 24.7927 1692.83 25.834C1692.42 26.8753 1692.22 28.122 1692.22 29.574C1692.22 30.9527 1692.4 32.2067 1692.77 33.336C1693.13 34.4653 1693.69 35.3673 1694.44 36.042C1695.19 36.702 1696.11 37.032 1697.21 37.032C1697.99 37.032 1698.58 36.966 1698.99 36.834C1699.42 36.702 1699.78 36.5113 1700.07 36.262L1700.99 34.106L1702.38 34.282L1701.85 37.406C1701.54 37.4207 1701.09 37.5233 1700.49 37.714C1699.96 37.8753 1699.45 38 1698.95 38.088C1698.46 38.1907 1697.86 38.242 1697.12 38.242ZM1706.02 23.018L1704.21 22.754V21.654H1715.41L1715.72 25.064H1714.47L1713.83 22.93L1708.37 22.798V29.002L1712.05 28.936L1712.35 27.11H1713.56V32.17H1712.35L1712.05 30.278L1708.37 30.212V36.768L1714.58 36.548L1715.74 33.776L1717.04 34.172L1716.4 38H1704.19V36.922L1706.02 36.702V23.018ZM1732.65 36.68C1732.65 36.8707 1732.57 37.8093 1732.4 39.496C1732.24 41.1827 1732.15 42.048 1732.14 42.092H1730.73C1730.7 41.5493 1730.64 40.7573 1730.53 39.716C1730.45 38.6747 1730.38 38.1027 1730.34 38H1720.28C1720.22 38.0587 1720.08 38.616 1719.84 39.672C1719.62 40.728 1719.45 41.542 1719.34 42.114H1717.91C1717.92 41.5273 1717.95 40.6473 1717.99 39.474C1718.05 38.3153 1718.1 37.384 1718.15 36.68H1719.75C1720.11 36.24 1720.49 35.5213 1720.9 34.524C1721.32 33.512 1721.7 32.148 1722.04 30.432C1722.38 28.7013 1722.55 26.6773 1722.55 24.36V23.018L1720.28 22.754V21.654H1732.73V22.754L1730.67 23.018V36.68H1732.65ZM1723.91 24.492C1723.93 26.5747 1723.8 28.4667 1723.54 30.168C1723.27 31.8547 1722.96 33.248 1722.59 34.348C1722.24 35.448 1721.92 36.2253 1721.62 36.68H1728.33L1728.36 22.93H1723.91V24.492ZM1740.05 21.522H1742.47L1747.81 36.702L1749.18 36.922V38H1743.37V36.922L1745.19 36.702L1744.16 33.446H1737.74L1736.7 36.702L1738.59 36.922V38H1733.38V36.922L1734.74 36.702L1740.05 21.522ZM1741.43 25.042L1740.88 23.106L1740.35 25.086L1738.13 32.148H1743.74L1741.43 25.042ZM1755.28 22.82L1751.49 22.952L1750.72 27.55H1749.27L1749.65 21.654H1763.35L1763.62 27.55H1762.23L1761.5 22.952L1757.7 22.82V36.702L1760.82 36.922V38H1752.42V36.922L1755.28 36.702V22.82ZM1766.97 23.018L1765.16 22.754V21.654H1776.36L1776.67 25.064H1775.42L1774.78 22.93L1769.32 22.798V29.002L1773 28.936L1773.3 27.11H1774.51V32.17H1773.3L1773 30.278L1769.32 30.212V36.768L1775.53 36.548L1776.69 33.776L1777.99 34.172L1777.35 38H1765.14V36.922L1766.97 36.702V23.018ZM1784.97 24.998C1784.97 27.638 1784.82 29.97 1784.51 31.994C1784.22 34.0033 1783.77 35.5287 1783.17 36.57C1782.86 37.098 1782.51 37.4867 1782.11 37.736C1781.72 37.9853 1781.25 38.11 1780.7 38.11C1780 38.11 1779.48 38.0733 1779.14 38L1778.99 36.218C1779.33 36.262 1779.88 36.284 1780.64 36.284C1780.92 36.284 1781.16 36.2253 1781.36 36.108C1781.57 35.976 1781.76 35.756 1781.94 35.448C1783.05 33.7173 1783.61 30.1533 1783.61 24.756V23.018L1781.08 22.754V21.654H1793.79V22.754L1791.75 23.018V36.702L1793.93 36.922V38H1787.15V36.922L1789.42 36.68L1789.44 23.018H1784.97V24.998ZM1802.03 21.654V22.754L1799.87 23.018V34.062L1801.68 31.356L1808.01 23.612V23.018L1806.06 22.754V21.654H1812.11V22.754L1810.35 23.018V36.702L1812.22 36.922V38H1806.08V36.922L1808.01 36.702V25.504L1806.39 28.056L1799.87 35.91V36.702L1801.94 36.922V38H1795.74V36.922L1797.56 36.702V23.018L1795.8 22.754V21.654H1802.03ZM1817.73 32.764H1816.32L1815.66 18.574H1818.35L1817.73 32.764ZM1815.58 36.834C1815.58 36.394 1815.75 36.02 1816.08 35.712C1816.42 35.404 1816.8 35.25 1817.23 35.25C1817.7 35.25 1818.06 35.382 1818.3 35.646C1818.55 35.91 1818.68 36.24 1818.68 36.636C1818.68 37.1053 1818.51 37.4867 1818.17 37.78C1817.85 38.0733 1817.45 38.22 1816.98 38.22C1816.6 38.22 1816.27 38.0953 1815.99 37.846C1815.72 37.582 1815.58 37.2447 1815.58 36.834Z" fill="white"/>
</svg>
